<?xml version='1.0' encoding='utf-8'?>
<svg xmlns="http://www.w3.org/2000/svg" version="1.1" width="3024" height="4032" viewBox="0 0 3024 4032"><rect x="0" y="0" width="100%" height="100%" fill="#ffffff" /><g id="rectangles"><rect x="0" y="0" width="336" height="448" fill="rgb(86,93,76)" stroke="#000000" stroke-width="1" /><rect x="336" y="0" width="336" height="448" fill="rgb(86,92,73)" stroke="#000000" stroke-width="1" /><rect x="672" y="0" width="336" height="448" fill="rgb(99,103,86)" stroke="#000000" stroke-width="1" /><rect x="1008" y="0" width="336" height="448" fill="rgb(96,96,77)" stroke="#000000" stroke-width="1" /><rect x="1344" y="0" width="336" height="448" fill="rgb(97,98,87)" stroke="#000000" stroke-width="1" /><rect x="1680" y="0" width="336" height="448" fill="rgb(94,95,77)" stroke="#000000" stroke-width="1" /><rect x="2016" y="0" width="336" height="448" fill="rgb(102,105,86)" stroke="#000000" stroke-width="1" /><rect x="2352" y="0" width="336" height="448" fill="rgb(99,104,84)" stroke="#000000" stroke-width="1" /><rect x="2688" y="0" width="336" height="448" fill="rgb(73,83,58)" stroke="#000000" stroke-width="1" /><rect x="0" y="448" width="336" height="448" fill="rgb(87,91,76)" stroke="#000000" stroke-width="1" /><rect x="336" y="448" width="336" height="448" fill="rgb(82,84,69)" stroke="#000000" stroke-width="1" /><rect x="672" y="448" width="336" height="448" fill="rgb(88,90,72)" stroke="#000000" stroke-width="1" /><rect x="1008" y="448" width="336" height="448" fill="rgb(94,96,81)" stroke="#000000" stroke-width="1" /><rect x="1344" y="448" width="336" height="448" fill="rgb(96,101,111)" stroke="#000000" stroke-width="1" /><rect x="1680" y="448" width="336" height="448" fill="rgb(96,98,87)" stroke="#000000" stroke-width="1" /><rect x="2016" y="448" width="336" height="448" fill="rgb(95,99,77)" stroke="#000000" stroke-width="1" /><rect x="2352" y="448" width="336" height="448" fill="rgb(100,107,85)" stroke="#000000" stroke-width="1" /><rect x="2688" y="448" width="336" height="448" fill="rgb(85,97,73)" stroke="#000000" stroke-width="1" /><rect x="0" y="896" width="336" height="448" fill="rgb(54,56,34)" stroke="#000000" stroke-width="1" /><rect x="336" y="896" width="336" height="448" fill="rgb(53,55,36)" stroke="#000000" stroke-width="1" /><rect x="672" y="896" width="336" height="448" fill="rgb(75,77,63)" stroke="#000000" stroke-width="1" /><rect x="1008" y="896" width="336" height="448" fill="rgb(65,69,69)" stroke="#000000" stroke-width="1" /><rect x="1344" y="896" width="336" height="448" fill="rgb(66,73,84)" stroke="#000000" stroke-width="1" /><rect x="1680" y="896" width="336" height="448" fill="rgb(61,66,69)" stroke="#000000" stroke-width="1" /><rect x="2016" y="896" width="336" height="448" fill="rgb(93,98,80)" stroke="#000000" stroke-width="1" /><rect x="2352" y="896" width="336" height="448" fill="rgb(104,111,90)" stroke="#000000" stroke-width="1" /><rect x="2688" y="896" width="336" height="448" fill="rgb(88,95,72)" stroke="#000000" stroke-width="1" /><rect x="0" y="1344" width="336" height="448" fill="rgb(65,64,50)" stroke="#000000" stroke-width="1" /><rect x="336" y="1344" width="336" height="448" fill="rgb(94,96,79)" stroke="#000000" stroke-width="1" /><rect x="672" y="1344" width="336" height="448" fill="rgb(94,95,77)" stroke="#000000" stroke-width="1" /><rect x="1008" y="1344" width="336" height="448" fill="rgb(58,58,42)" stroke="#000000" stroke-width="1" /><rect x="1344" y="1344" width="336" height="448" fill="rgb(43,49,44)" stroke="#000000" stroke-width="1" /><rect x="1680" y="1344" width="336" height="448" fill="rgb(57,66,64)" stroke="#000000" stroke-width="1" /><rect x="2016" y="1344" width="336" height="448" fill="rgb(71,77,52)" stroke="#000000" stroke-width="1" /><rect x="2352" y="1344" width="336" height="448" fill="rgb(90,88,77)" stroke="#000000" stroke-width="1" /><rect x="2688" y="1344" width="336" height="448" fill="rgb(58,59,53)" stroke="#000000" stroke-width="1" /><rect x="0" y="1792" width="336" height="448" fill="rgb(94,105,104)" stroke="#000000" stroke-width="1" /><rect x="336" y="1792" width="336" height="448" fill="rgb(97,106,87)" stroke="#000000" stroke-width="1" /><rect x="672" y="1792" width="336" height="448" fill="rgb(101,110,86)" stroke="#000000" stroke-width="1" /><rect x="1008" y="1792" width="336" height="448" fill="rgb(82,86,66)" stroke="#000000" stroke-width="1" /><rect x="1344" y="1792" width="336" height="448" fill="rgb(61,65,56)" stroke="#000000" stroke-width="1" /><rect x="1680" y="1792" width="336" height="448" fill="rgb(71,77,63)" stroke="#000000" stroke-width="1" /><rect x="2016" y="1792" width="336" height="448" fill="rgb(91,97,73)" stroke="#000000" stroke-width="1" /><rect x="2352" y="1792" width="336" height="448" fill="rgb(92,98,81)" stroke="#000000" stroke-width="1" /><rect x="2688" y="1792" width="336" height="448" fill="rgb(89,84,77)" stroke="#000000" stroke-width="1" /><rect x="0" y="2240" width="336" height="448" fill="rgb(108,126,76)" stroke="#000000" stroke-width="1" /><rect x="336" y="2240" width="336" height="448" fill="rgb(127,143,90)" stroke="#000000" stroke-width="1" /><rect x="672" y="2240" width="336" height="448" fill="rgb(140,152,100)" stroke="#000000" stroke-width="1" /><rect x="1008" y="2240" width="336" height="448" fill="rgb(142,152,110)" stroke="#000000" stroke-width="1" /><rect x="1344" y="2240" width="336" height="448" fill="rgb(131,137,138)" stroke="#000000" stroke-width="1" /><rect x="1680" y="2240" width="336" height="448" fill="rgb(128,132,134)" stroke="#000000" stroke-width="1" /><rect x="2016" y="2240" width="336" height="448" fill="rgb(143,149,131)" stroke="#000000" stroke-width="1" /><rect x="2352" y="2240" width="336" height="448" fill="rgb(133,148,94)" stroke="#000000" stroke-width="1" /><rect x="2688" y="2240" width="336" height="448" fill="rgb(119,140,80)" stroke="#000000" stroke-width="1" /><rect x="0" y="2688" width="336" height="448" fill="rgb(157,184,114)" stroke="#000000" stroke-width="1" /><rect x="336" y="2688" width="336" height="448" fill="rgb(156,183,112)" stroke="#000000" stroke-width="1" /><rect x="672" y="2688" width="336" height="448" fill="rgb(154,180,105)" stroke="#000000" stroke-width="1" /><rect x="1008" y="2688" width="336" height="448" fill="rgb(171,185,147)" stroke="#000000" stroke-width="1" /><rect x="1344" y="2688" width="336" height="448" fill="rgb(194,198,197)" stroke="#000000" stroke-width="1" /><rect x="1680" y="2688" width="336" height="448" fill="rgb(192,196,195)" stroke="#000000" stroke-width="1" /><rect x="2016" y="2688" width="336" height="448" fill="rgb(185,189,182)" stroke="#000000" stroke-width="1" /><rect x="2352" y="2688" width="336" height="448" fill="rgb(160,183,124)" stroke="#000000" stroke-width="1" /><rect x="2688" y="2688" width="336" height="448" fill="rgb(159,185,116)" stroke="#000000" stroke-width="1" /><rect x="0" y="3136" width="336" height="448" fill="rgb(156,182,112)" stroke="#000000" stroke-width="1" /><rect x="336" y="3136" width="336" height="448" fill="rgb(156,182,109)" stroke="#000000" stroke-width="1" /><rect x="672" y="3136" width="336" height="448" fill="rgb(156,182,108)" stroke="#000000" stroke-width="1" /><rect x="1008" y="3136" width="336" height="448" fill="rgb(155,181,110)" stroke="#000000" stroke-width="1" /><rect x="1344" y="3136" width="336" height="448" fill="rgb(155,181,110)" stroke="#000000" stroke-width="1" /><rect x="1680" y="3136" width="336" height="448" fill="rgb(155,181,115)" stroke="#000000" stroke-width="1" /><rect x="2016" y="3136" width="336" height="448" fill="rgb(160,185,119)" stroke="#000000" stroke-width="1" /><rect x="2352" y="3136" width="336" height="448" fill="rgb(161,187,121)" stroke="#000000" stroke-width="1" /><rect x="2688" y="3136" width="336" height="448" fill="rgb(161,186,118)" stroke="#000000" stroke-width="1" /><rect x="0" y="3584" width="336" height="448" fill="rgb(159,183,114)" stroke="#000000" stroke-width="1" /><rect x="336" y="3584" width="336" height="448" fill="rgb(161,183,111)" stroke="#000000" stroke-width="1" /><rect x="672" y="3584" width="336" height="448" fill="rgb(159,183,108)" stroke="#000000" stroke-width="1" /><rect x="1008" y="3584" width="336" height="448" fill="rgb(160,182,110)" stroke="#000000" stroke-width="1" /><rect x="1344" y="3584" width="336" height="448" fill="rgb(161,181,112)" stroke="#000000" stroke-width="1" /><rect x="1680" y="3584" width="336" height="448" fill="rgb(163,183,118)" stroke="#000000" stroke-width="1" /><rect x="2016" y="3584" width="336" height="448" fill="rgb(163,184,120)" stroke="#000000" stroke-width="1" /><rect x="2352" y="3584" width="336" height="448" fill="rgb(161,184,121)" stroke="#000000" stroke-width="1" /><rect x="2688" y="3584" width="336" height="448" fill="rgb(165,186,125)" stroke="#000000" stroke-width="1" /></g></svg>