<?xml version='1.0' encoding='utf-8'?>
<svg xmlns="http://www.w3.org/2000/svg" version="1.1" width="3024" height="4032" viewBox="0 0 3024 4032"><rect x="0" y="0" width="100%" height="100%" fill="#ffffff" /><g id="delaunay"><polygon points="12,1797 0,4031 0,0" fill="rgb(99,112,76)" stroke="#000000" stroke-width="1" /><polygon points="3023,0 1863,176 0,0" fill="rgb(95,97,80)" stroke="#000000" stroke-width="1" /><polygon points="0,4031 2059,3933 3023,4031" fill="rgb(160,181,113)" stroke="#000000" stroke-width="1" /><polygon points="2999,3336 2854,3095 2855,1815" fill="rgb(144,167,103)" stroke="#000000" stroke-width="1" /><polygon points="3023,4031 2999,3336 3023,0" fill="rgb(117,134,87)" stroke="#000000" stroke-width="1" /><polygon points="2999,3336 2855,1815 3023,0" fill="rgb(96,101,75)" stroke="#000000" stroke-width="1" /><polygon points="1863,176 936,257 0,0" fill="rgb(94,97,79)" stroke="#000000" stroke-width="1" /><polygon points="936,257 1863,176 1481,371" fill="rgb(92,92,76)" stroke="#000000" stroke-width="1" /><polygon points="12,1797 134,2754 0,4031" fill="rgb(135,159,98)" stroke="#000000" stroke-width="1" /><polygon points="932,3791 2059,3933 0,4031" fill="rgb(159,180,107)" stroke="#000000" stroke-width="1" /><polygon points="2855,1815 2863,763 3023,0" fill="rgb(84,93,72)" stroke="#000000" stroke-width="1" /><polygon points="2863,763 2702,647 3023,0" fill="rgb(72,83,60)" stroke="#000000" stroke-width="1" /><polygon points="2854,3095 2595,2546 2855,1815" fill="rgb(124,142,91)" stroke="#000000" stroke-width="1" /><polygon points="52,392 12,1797 0,0" fill="rgb(73,78,59)" stroke="#000000" stroke-width="1" /><polygon points="52,392 107,736 12,1797" fill="rgb(72,76,57)" stroke="#000000" stroke-width="1" /><polygon points="936,257 52,392 0,0" fill="rgb(91,99,80)" stroke="#000000" stroke-width="1" /><polygon points="107,736 145,1495 12,1797" fill="rgb(55,56,37)" stroke="#000000" stroke-width="1" /><polygon points="145,1495 107,736 669,916" fill="rgb(66,68,50)" stroke="#000000" stroke-width="1" /><polygon points="134,2754 148,3601 0,4031" fill="rgb(157,183,113)" stroke="#000000" stroke-width="1" /><polygon points="148,3601 134,2754 526,3208" fill="rgb(157,184,114)" stroke="#000000" stroke-width="1" /><polygon points="146,2596 134,2754 12,1797" fill="rgb(98,120,72)" stroke="#000000" stroke-width="1" /><polygon points="932,3791 1875,3719 2059,3933" fill="rgb(163,180,117)" stroke="#000000" stroke-width="1" /><polygon points="2096,3736 1875,3719 1852,3460" fill="rgb(161,185,118)" stroke="#000000" stroke-width="1" /><polygon points="1875,3719 2096,3736 2059,3933" fill="rgb(165,186,124)" stroke="#000000" stroke-width="1" /><polygon points="2577,273 1863,176 3023,0" fill="rgb(92,95,74)" stroke="#000000" stroke-width="1" /><polygon points="2577,273 2464,307 1863,176" fill="rgb(108,112,100)" stroke="#000000" stroke-width="1" /><polygon points="2999,3336 2547,3385 2854,3095" fill="rgb(158,185,117)" stroke="#000000" stroke-width="1" /><polygon points="2881,3579 2547,3385 2999,3336" fill="rgb(163,187,120)" stroke="#000000" stroke-width="1" /><polygon points="2547,3385 2881,3579 2540,3461" fill="rgb(165,188,124)" stroke="#000000" stroke-width="1" /><polygon points="2059,3933 2531,3913 3023,4031" fill="rgb(161,182,119)" stroke="#000000" stroke-width="1" /><polygon points="2881,3579 2531,3913 2540,3461" fill="rgb(164,188,126)" stroke="#000000" stroke-width="1" /><polygon points="2096,3736 2531,3913 2059,3933" fill="rgb(160,179,114)" stroke="#000000" stroke-width="1" /><polygon points="2540,3461 2531,3913 2096,3736" fill="rgb(164,187,125)" stroke="#000000" stroke-width="1" /><polygon points="1799,3056 1609,2966 2073,2700" fill="rgb(196,199,200)" stroke="#000000" stroke-width="1" /><polygon points="1875,3719 1070,3357 1852,3460" fill="rgb(158,183,113)" stroke="#000000" stroke-width="1" /><polygon points="1070,3357 1875,3719 932,3791" fill="rgb(160,184,112)" stroke="#000000" stroke-width="1" /><polygon points="2595,2546 2455,1881 2855,1815" fill="rgb(90,91,77)" stroke="#000000" stroke-width="1" /><polygon points="2455,1881 2733,1745 2855,1815" fill="rgb(102,116,80)" stroke="#000000" stroke-width="1" /><polygon points="2733,1745 2455,1881 2527,1787" fill="rgb(104,109,86)" stroke="#000000" stroke-width="1" /><polygon points="2455,1881 2395,1754 2527,1787" fill="rgb(107,109,92)" stroke="#000000" stroke-width="1" /><polygon points="1457,563 936,257 1481,371" fill="rgb(84,85,74)" stroke="#000000" stroke-width="1" /><polygon points="1457,563 964,812 936,257" fill="rgb(93,93,74)" stroke="#000000" stroke-width="1" /><polygon points="964,812 1457,563 1394,1259" fill="rgb(80,84,82)" stroke="#000000" stroke-width="1" /><polygon points="1457,563 1628,1162 1394,1259" fill="rgb(87,94,108)" stroke="#000000" stroke-width="1" /><polygon points="606,666 964,812 669,916" fill="rgb(96,100,82)" stroke="#000000" stroke-width="1" /><polygon points="964,812 606,666 936,257" fill="rgb(86,88,70)" stroke="#000000" stroke-width="1" /><polygon points="796,1467 145,1495 669,916" fill="rgb(46,50,29)" stroke="#000000" stroke-width="1" /><polygon points="932,3791 333,3651 526,3208" fill="rgb(159,183,110)" stroke="#000000" stroke-width="1" /><polygon points="333,3651 932,3791 0,4031" fill="rgb(161,183,111)" stroke="#000000" stroke-width="1" /><polygon points="180,2276 146,2596 12,1797" fill="rgb(90,100,85)" stroke="#000000" stroke-width="1" /><polygon points="2577,273 2591,359 2464,307" fill="rgb(95,104,86)" stroke="#000000" stroke-width="1" /><polygon points="2702,647 2591,359 3023,0" fill="rgb(82,94,66)" stroke="#000000" stroke-width="1" /><polygon points="2591,359 2577,273 3023,0" fill="rgb(55,61,36)" stroke="#000000" stroke-width="1" /><polygon points="2115,3393 2096,3736 1852,3460" fill="rgb(161,185,122)" stroke="#000000" stroke-width="1" /><polygon points="2115,3393 2540,3461 2096,3736" fill="rgb(164,188,126)" stroke="#000000" stroke-width="1" /><polygon points="2531,3913 2986,3900 3023,4031" fill="rgb(158,180,115)" stroke="#000000" stroke-width="1" /><polygon points="2986,3900 2531,3913 2881,3579" fill="rgb(165,187,125)" stroke="#000000" stroke-width="1" /><polygon points="2986,3900 2999,3336 3023,4031" fill="rgb(170,189,134)" stroke="#000000" stroke-width="1" /><polygon points="2986,3900 2881,3579 2999,3336" fill="rgb(167,189,125)" stroke="#000000" stroke-width="1" /><polygon points="1799,3056 1710,3120 1609,2966" fill="rgb(188,192,190)" stroke="#000000" stroke-width="1" /><polygon points="2299,2203 2595,2546 2073,2700" fill="rgb(141,155,110)" stroke="#000000" stroke-width="1" /><polygon points="2299,2203 2455,1881 2595,2546" fill="rgb(101,103,87)" stroke="#000000" stroke-width="1" /><polygon points="2359,784 2189,1313 1628,1162" fill="rgb(93,98,88)" stroke="#000000" stroke-width="1" /><polygon points="52,392 281,622 107,736" fill="rgb(86,89,74)" stroke="#000000" stroke-width="1" /><polygon points="107,736 281,622 669,916" fill="rgb(89,90,79)" stroke="#000000" stroke-width="1" /><polygon points="281,622 606,666 669,916" fill="rgb(104,105,93)" stroke="#000000" stroke-width="1" /><polygon points="281,622 52,392 936,257" fill="rgb(74,78,62)" stroke="#000000" stroke-width="1" /><polygon points="606,666 281,622 936,257" fill="rgb(79,80,63)" stroke="#000000" stroke-width="1" /><polygon points="964,812 1055,1331 669,916" fill="rgb(99,102,88)" stroke="#000000" stroke-width="1" /><polygon points="1055,1331 796,1467 669,916" fill="rgb(55,56,40)" stroke="#000000" stroke-width="1" /><polygon points="1055,1331 964,812 1394,1259" fill="rgb(75,79,80)" stroke="#000000" stroke-width="1" /><polygon points="796,1467 733,1816 145,1495" fill="rgb(105,107,95)" stroke="#000000" stroke-width="1" /><polygon points="2189,1313 2085,1493 1628,1162" fill="rgb(56,60,49)" stroke="#000000" stroke-width="1" /><polygon points="2085,1493 2189,1313 2395,1754" fill="rgb(59,60,43)" stroke="#000000" stroke-width="1" /><polygon points="265,3621 148,3601 526,3208" fill="rgb(155,182,110)" stroke="#000000" stroke-width="1" /><polygon points="333,3651 265,3621 526,3208" fill="rgb(155,183,110)" stroke="#000000" stroke-width="1" /><polygon points="148,3601 265,3621 0,4031" fill="rgb(160,185,116)" stroke="#000000" stroke-width="1" /><polygon points="265,3621 333,3651 0,4031" fill="rgb(161,185,115)" stroke="#000000" stroke-width="1" /><polygon points="1710,3120 1298,3138 1609,2966" fill="rgb(187,191,186)" stroke="#000000" stroke-width="1" /><polygon points="1070,3357 1298,3138 1852,3460" fill="rgb(156,182,113)" stroke="#000000" stroke-width="1" /><polygon points="1298,3138 1710,3120 1852,3460" fill="rgb(153,178,110)" stroke="#000000" stroke-width="1" /><polygon points="2073,2700 1280,2567 1730,1866" fill="rgb(120,125,122)" stroke="#000000" stroke-width="1" /><polygon points="2644,2767 2595,2546 2854,3095" fill="rgb(157,183,115)" stroke="#000000" stroke-width="1" /><polygon points="2547,3385 2702,3068 2854,3095" fill="rgb(154,181,105)" stroke="#000000" stroke-width="1" /><polygon points="2644,2767 2483,2751 2595,2546" fill="rgb(150,175,102)" stroke="#000000" stroke-width="1" /><polygon points="2483,2751 2644,2767 2564,2892" fill="rgb(165,190,130)" stroke="#000000" stroke-width="1" /><polygon points="2318,2811 2483,2751 2564,2892" fill="rgb(169,191,139)" stroke="#000000" stroke-width="1" /><polygon points="2318,2811 1799,3056 2073,2700" fill="rgb(197,200,202)" stroke="#000000" stroke-width="1" /><polygon points="2595,2546 2318,2811 2073,2700" fill="rgb(172,179,156)" stroke="#000000" stroke-width="1" /><polygon points="2483,2751 2318,2811 2595,2546" fill="rgb(157,178,118)" stroke="#000000" stroke-width="1" /><polygon points="2455,1881 2261,2122 2395,1754" fill="rgb(100,115,82)" stroke="#000000" stroke-width="1" /><polygon points="2299,2203 2261,2122 2455,1881" fill="rgb(88,92,77)" stroke="#000000" stroke-width="1" /><polygon points="2261,2122 2073,2700 1730,1866" fill="rgb(86,88,85)" stroke="#000000" stroke-width="1" /><polygon points="2261,2122 2299,2203 2073,2700" fill="rgb(121,123,108)" stroke="#000000" stroke-width="1" /><polygon points="2464,307 2178,379 1863,176" fill="rgb(115,119,100)" stroke="#000000" stroke-width="1" /><polygon points="1457,563 1665,516 1628,1162" fill="rgb(87,93,105)" stroke="#000000" stroke-width="1" /><polygon points="1665,516 2359,784 1628,1162" fill="rgb(91,95,88)" stroke="#000000" stroke-width="1" /><polygon points="1665,516 2178,379 2359,784" fill="rgb(87,90,71)" stroke="#000000" stroke-width="1" /><polygon points="2178,379 1665,516 1863,176" fill="rgb(84,86,71)" stroke="#000000" stroke-width="1" /><polygon points="1665,516 1457,563 1481,371" fill="rgb(98,101,114)" stroke="#000000" stroke-width="1" /><polygon points="2591,359 2547,523 2464,307" fill="rgb(104,110,89)" stroke="#000000" stroke-width="1" /><polygon points="2547,523 2178,379 2464,307" fill="rgb(96,99,78)" stroke="#000000" stroke-width="1" /><polygon points="2178,379 2547,523 2359,784" fill="rgb(90,94,72)" stroke="#000000" stroke-width="1" /><polygon points="2547,523 2591,359 2702,647" fill="rgb(106,114,98)" stroke="#000000" stroke-width="1" /><polygon points="2359,784 2547,523 2702,647" fill="rgb(98,106,83)" stroke="#000000" stroke-width="1" /><polygon points="2359,784 2689,1115 2189,1313" fill="rgb(105,111,89)" stroke="#000000" stroke-width="1" /><polygon points="2689,1115 2863,763 2855,1815" fill="rgb(73,79,63)" stroke="#000000" stroke-width="1" /><polygon points="2733,1745 2689,1115 2855,1815" fill="rgb(55,58,50)" stroke="#000000" stroke-width="1" /><polygon points="2689,1115 2733,1745 2527,1787" fill="rgb(94,92,82)" stroke="#000000" stroke-width="1" /><polygon points="2395,1754 2689,1115 2527,1787" fill="rgb(95,92,81)" stroke="#000000" stroke-width="1" /><polygon points="2189,1313 2689,1115 2395,1754" fill="rgb(81,85,66)" stroke="#000000" stroke-width="1" /><polygon points="1337,1429 1055,1331 1394,1259" fill="rgb(35,36,33)" stroke="#000000" stroke-width="1" /><polygon points="943,1562 733,1816 796,1467" fill="rgb(113,108,98)" stroke="#000000" stroke-width="1" /><polygon points="1337,1429 943,1562 1055,1331" fill="rgb(45,45,25)" stroke="#000000" stroke-width="1" /><polygon points="1796,1762 2085,1493 2395,1754" fill="rgb(87,98,69)" stroke="#000000" stroke-width="1" /><polygon points="1796,1762 2261,2122 1730,1866" fill="rgb(57,65,47)" stroke="#000000" stroke-width="1" /><polygon points="2261,2122 1796,1762 2395,1754" fill="rgb(100,113,79)" stroke="#000000" stroke-width="1" /><polygon points="851,2997 788,3151 526,3208" fill="rgb(159,183,111)" stroke="#000000" stroke-width="1" /><polygon points="788,3151 932,3791 526,3208" fill="rgb(157,182,109)" stroke="#000000" stroke-width="1" /><polygon points="788,3151 1070,3357 932,3791" fill="rgb(156,182,107)" stroke="#000000" stroke-width="1" /><polygon points="134,2754 639,2639 526,3208" fill="rgb(156,182,113)" stroke="#000000" stroke-width="1" /><polygon points="639,2639 851,2997 526,3208" fill="rgb(158,183,111)" stroke="#000000" stroke-width="1" /><polygon points="146,2596 639,2639 134,2754" fill="rgb(139,164,85)" stroke="#000000" stroke-width="1" /><polygon points="851,2997 639,2639 1082,2733" fill="rgb(151,178,103)" stroke="#000000" stroke-width="1" /><polygon points="1298,3138 1408,2823 1609,2966" fill="rgb(197,200,200)" stroke="#000000" stroke-width="1" /><polygon points="1408,2823 1298,3138 1082,2733" fill="rgb(192,197,186)" stroke="#000000" stroke-width="1" /><polygon points="1280,2567 1408,2823 1082,2733" fill="rgb(191,196,184)" stroke="#000000" stroke-width="1" /><polygon points="1074,3317 1298,3138 1070,3357" fill="rgb(155,180,108)" stroke="#000000" stroke-width="1" /><polygon points="788,3151 1074,3317 1070,3357" fill="rgb(154,181,107)" stroke="#000000" stroke-width="1" /><polygon points="1177,3169 851,2997 1082,2733" fill="rgb(151,177,102)" stroke="#000000" stroke-width="1" /><polygon points="1298,3138 1177,3169 1082,2733" fill="rgb(164,179,137)" stroke="#000000" stroke-width="1" /><polygon points="1074,3317 1177,3169 1298,3138" fill="rgb(153,180,110)" stroke="#000000" stroke-width="1" /><polygon points="1177,3169 788,3151 851,2997" fill="rgb(148,174,99)" stroke="#000000" stroke-width="1" /><polygon points="1177,3169 1074,3317 788,3151" fill="rgb(155,181,107)" stroke="#000000" stroke-width="1" /><polygon points="733,1816 266,2007 145,1495" fill="rgb(96,101,81)" stroke="#000000" stroke-width="1" /><polygon points="223,2236 266,2007 475,2199" fill="rgb(111,125,146)" stroke="#000000" stroke-width="1" /><polygon points="738,1893 266,2007 733,1816" fill="rgb(95,112,80)" stroke="#000000" stroke-width="1" /><polygon points="266,2007 738,1893 475,2199" fill="rgb(106,115,96)" stroke="#000000" stroke-width="1" /><polygon points="2442,3244 2702,3068 2547,3385" fill="rgb(159,184,115)" stroke="#000000" stroke-width="1" /><polygon points="2442,3244 2318,2811 2564,2892" fill="rgb(160,181,125)" stroke="#000000" stroke-width="1" /><polygon points="2442,3244 2547,3385 2540,3461" fill="rgb(164,190,127)" stroke="#000000" stroke-width="1" /><polygon points="2115,3393 2442,3244 2540,3461" fill="rgb(162,188,127)" stroke="#000000" stroke-width="1" /><polygon points="2728,3063 2644,2767 2854,3095" fill="rgb(159,186,119)" stroke="#000000" stroke-width="1" /><polygon points="2702,3068 2728,3063 2854,3095" fill="rgb(158,185,110)" stroke="#000000" stroke-width="1" /><polygon points="2318,2811 2022,3355 1799,3056" fill="rgb(175,185,159)" stroke="#000000" stroke-width="1" /><polygon points="2022,3355 2115,3393 1852,3460" fill="rgb(158,184,122)" stroke="#000000" stroke-width="1" /><polygon points="2022,3355 2442,3244 2115,3393" fill="rgb(161,187,124)" stroke="#000000" stroke-width="1" /><polygon points="2442,3244 2022,3355 2318,2811" fill="rgb(164,180,133)" stroke="#000000" stroke-width="1" /><polygon points="1710,3120 2022,3355 1852,3460" fill="rgb(157,183,118)" stroke="#000000" stroke-width="1" /><polygon points="2022,3355 1710,3120 1799,3056" fill="rgb(158,177,124)" stroke="#000000" stroke-width="1" /><polygon points="1863,176 1603,346 1481,371" fill="rgb(118,118,96)" stroke="#000000" stroke-width="1" /><polygon points="1603,346 1665,516 1481,371" fill="rgb(136,136,136)" stroke="#000000" stroke-width="1" /><polygon points="1665,516 1603,346 1863,176" fill="rgb(91,90,69)" stroke="#000000" stroke-width="1" /><polygon points="2712,914 2359,784 2702,647" fill="rgb(102,110,87)" stroke="#000000" stroke-width="1" /><polygon points="2863,763 2712,914 2702,647" fill="rgb(99,113,86)" stroke="#000000" stroke-width="1" /><polygon points="1055,1331 903,1478 796,1467" fill="rgb(55,60,44)" stroke="#000000" stroke-width="1" /><polygon points="903,1478 943,1562 796,1467" fill="rgb(67,76,66)" stroke="#000000" stroke-width="1" /><polygon points="943,1562 903,1478 1055,1331" fill="rgb(49,53,30)" stroke="#000000" stroke-width="1" /><polygon points="943,1562 953,2069 733,1816" fill="rgb(118,127,91)" stroke="#000000" stroke-width="1" /><polygon points="953,2069 738,1893 733,1816" fill="rgb(103,119,85)" stroke="#000000" stroke-width="1" /><polygon points="953,2069 1280,2567 1082,2733" fill="rgb(138,150,100)" stroke="#000000" stroke-width="1" /><polygon points="738,1893 953,2069 475,2199" fill="rgb(86,97,77)" stroke="#000000" stroke-width="1" /><polygon points="624,2539 639,2639 146,2596" fill="rgb(133,159,79)" stroke="#000000" stroke-width="1" /><polygon points="180,2276 624,2539 146,2596" fill="rgb(126,149,83)" stroke="#000000" stroke-width="1" /><polygon points="953,2069 624,2539 475,2199" fill="rgb(120,118,103)" stroke="#000000" stroke-width="1" /><polygon points="223,2236 624,2539 180,2276" fill="rgb(89,93,73)" stroke="#000000" stroke-width="1" /><polygon points="624,2539 223,2236 475,2199" fill="rgb(90,96,82)" stroke="#000000" stroke-width="1" /><polygon points="639,2639 624,2539 1082,2733" fill="rgb(149,170,95)" stroke="#000000" stroke-width="1" /><polygon points="624,2539 953,2069 1082,2733" fill="rgb(134,148,95)" stroke="#000000" stroke-width="1" /><polygon points="1498,2824 1280,2567 2073,2700" fill="rgb(187,190,191)" stroke="#000000" stroke-width="1" /><polygon points="1498,2824 1408,2823 1280,2567" fill="rgb(199,202,203)" stroke="#000000" stroke-width="1" /><polygon points="1609,2966 1498,2824 2073,2700" fill="rgb(197,200,201)" stroke="#000000" stroke-width="1" /><polygon points="1408,2823 1498,2824 1609,2966" fill="rgb(198,201,203)" stroke="#000000" stroke-width="1" /><polygon points="145,1495 116,1918 12,1797" fill="rgb(126,118,100)" stroke="#000000" stroke-width="1" /><polygon points="266,2007 116,1918 145,1495" fill="rgb(95,97,88)" stroke="#000000" stroke-width="1" /><polygon points="116,1918 180,2276 12,1797" fill="rgb(97,105,101)" stroke="#000000" stroke-width="1" /><polygon points="116,1918 223,2236 180,2276" fill="rgb(72,75,95)" stroke="#000000" stroke-width="1" /><polygon points="116,1918 266,2007 223,2236" fill="rgb(82,94,109)" stroke="#000000" stroke-width="1" /><polygon points="2635,3002 2442,3244 2564,2892" fill="rgb(153,179,108)" stroke="#000000" stroke-width="1" /><polygon points="2442,3244 2635,3002 2702,3068" fill="rgb(155,180,105)" stroke="#000000" stroke-width="1" /><polygon points="2635,3002 2728,3063 2702,3068" fill="rgb(160,186,112)" stroke="#000000" stroke-width="1" /><polygon points="2644,2767 2635,3002 2564,2892" fill="rgb(162,187,126)" stroke="#000000" stroke-width="1" /><polygon points="2728,3063 2635,3002 2644,2767" fill="rgb(157,185,118)" stroke="#000000" stroke-width="1" /><polygon points="2711,965 2689,1115 2359,784" fill="rgb(108,114,94)" stroke="#000000" stroke-width="1" /><polygon points="2712,914 2711,965 2359,784" fill="rgb(92,98,76)" stroke="#000000" stroke-width="1" /><polygon points="2689,1115 2711,965 2863,763" fill="rgb(103,114,91)" stroke="#000000" stroke-width="1" /><polygon points="2711,965 2712,914 2863,763" fill="rgb(107,116,92)" stroke="#000000" stroke-width="1" /><polygon points="1644,1769 1796,1762 1730,1866" fill="rgb(102,110,71)" stroke="#000000" stroke-width="1" /><polygon points="1227,2017 943,1562 1337,1429" fill="rgb(77,79,60)" stroke="#000000" stroke-width="1" /><polygon points="1227,2017 953,2069 943,1562" fill="rgb(110,119,85)" stroke="#000000" stroke-width="1" /><polygon points="1227,2017 1644,1769 1730,1866" fill="rgb(76,83,60)" stroke="#000000" stroke-width="1" /><polygon points="1280,2567 1227,2017 1730,1866" fill="rgb(67,70,58)" stroke="#000000" stroke-width="1" /><polygon points="953,2069 1227,2017 1280,2567" fill="rgb(113,114,95)" stroke="#000000" stroke-width="1" /><polygon points="1644,1769 1644,1656 1796,1762" fill="rgb(64,72,54)" stroke="#000000" stroke-width="1" /><polygon points="2085,1493 1644,1656 1628,1162" fill="rgb(51,58,65)" stroke="#000000" stroke-width="1" /><polygon points="1796,1762 1644,1656 2085,1493" fill="rgb(43,48,43)" stroke="#000000" stroke-width="1" /><polygon points="1587,1622 1227,2017 1337,1429" fill="rgb(28,32,24)" stroke="#000000" stroke-width="1" /><polygon points="1227,2017 1587,1622 1644,1769" fill="rgb(49,52,44)" stroke="#000000" stroke-width="1" /><polygon points="1587,1622 1644,1656 1644,1769" fill="rgb(85,99,67)" stroke="#000000" stroke-width="1" /><polygon points="1587,1622 1337,1429 1394,1259" fill="rgb(55,62,72)" stroke="#000000" stroke-width="1" /><polygon points="1628,1162 1587,1622 1394,1259" fill="rgb(55,61,70)" stroke="#000000" stroke-width="1" /><polygon points="1644,1656 1587,1622 1628,1162" fill="rgb(42,48,42)" stroke="#000000" stroke-width="1" /></g></svg>