<?xml version='1.0' encoding='utf-8'?>
<svg xmlns="http://www.w3.org/2000/svg" version="1.1" width="1024" height="1024" viewBox="0 0 1024 1024"><rect x="0" y="0" width="100%" height="100%" fill="#ffffff" /><metadata>geometry=voronoi; cascade=False; points=20</metadata><g id="voronoi_regular"><polygon points="637,2507 566,3033 1238,3666 1726,2789 1515,2317 1355,2161" fill="none" stroke="#000000" stroke-width="1" /><polygon points="478,2254 637,2507 566,3033 -862,3229 -32439,2015 -2283,1302 87,2005" fill="none" stroke="#000000" stroke-width="1" /><polygon points="2541,2649 1726,2789 1515,2317 2266,1990" fill="none" stroke="#000000" stroke-width="1" /><polygon points="478,2254 637,2507 1355,2161 1363,1576 1102,1183" fill="none" stroke="#000000" stroke-width="1" /><polygon points="4691,1641 7555,2250 76579,2015 2535,238 2448,456 2472,601" fill="none" stroke="#000000" stroke-width="1" /><polygon points="1102,1183 1363,1576 2024,1654 2112,1492 2000,980 1042,972 1058,1058" fill="none" stroke="#000000" stroke-width="1" /><polygon points="1355,2161 1515,2317 2266,1990 2266,1948 2024,1654 1363,1576" fill="none" stroke="#000000" stroke-width="1" /><polygon points="1230,284 2448,456 2535,238 1511,-9930 1301,-5783" fill="none" stroke="#000000" stroke-width="1" /><polygon points="2541,2649 2881,2814 1346,4059 1238,3666 1726,2789" fill="none" stroke="#000000" stroke-width="1" /><polygon points="2881,1549 2495,1256 2373,797 2472,601 4691,1641" fill="none" stroke="#000000" stroke-width="1" /><polygon points="2881,1549 2266,1948 2024,1654 2112,1492 2495,1256" fill="none" stroke="#000000" stroke-width="1" /><polygon points="1230,284 991,881 87,805 1301,-5783" fill="none" stroke="#000000" stroke-width="1" /><polygon points="478,2254 1102,1183 1058,1058 87,2005" fill="none" stroke="#000000" stroke-width="1" /><polygon points="566,3033 -862,3229 1407,4698 1346,4059 1238,3666" fill="none" stroke="#000000" stroke-width="1" /><polygon points="2973,2834 2881,2814 1346,4059 1407,4698 1511,5151 2412,4096" fill="none" stroke="#000000" stroke-width="1" /><polygon points="2373,797 2000,980 2112,1492 2495,1256" fill="none" stroke="#000000" stroke-width="1" /><polygon points="87,2005 -2283,1302 87,805 991,881 1042,972 1058,1058" fill="none" stroke="#000000" stroke-width="1" /><polygon points="2973,2834 6392,2439 2412,4096" fill="none" stroke="#000000" stroke-width="1" /><polygon points="2881,1549 2266,1948 2266,1990 2541,2649 2881,2814 2973,2834 6392,2439 7555,2250 4691,1641" fill="none" stroke="#000000" stroke-width="1" /><polygon points="2373,797 2000,980 1042,972 991,881 1230,284 2448,456 2472,601" fill="none" stroke="#000000" stroke-width="1" /></g></svg>