<?xml version='1.0' encoding='utf-8'?>
<svg xmlns="http://www.w3.org/2000/svg" version="1.1" width="1024" height="1024" viewBox="0 0 1024 1024"><rect x="0" y="0" width="100%" height="100%" fill="#ffffff" /><metadata>geometry=delaunay; cascade=False; points=20</metadata><g id="delaunay_regular"><polygon points="3023,0 1378,364 0,0" fill="none" stroke="#000000" stroke-width="1" /><polygon points="0,4031 1582,3836 3023,4031" fill="none" stroke="#000000" stroke-width="1" /><polygon points="322,2604 0,4031 0,0" fill="none" stroke="#000000" stroke-width="1" /><polygon points="1378,364 1118,926 0,0" fill="none" stroke="#000000" stroke-width="1" /><polygon points="2168,569 1378,364 3023,0" fill="none" stroke="#000000" stroke-width="1" /><polygon points="477,3883 1582,3836 0,4031" fill="none" stroke="#000000" stroke-width="1" /><polygon points="1118,926 1130,1150 0,0" fill="none" stroke="#000000" stroke-width="1" /><polygon points="2800,1327 2168,569 3023,0" fill="none" stroke="#000000" stroke-width="1" /><polygon points="3023,4031 2800,1327 3023,0" fill="none" stroke="#000000" stroke-width="1" /><polygon points="1725,872 1118,926 1378,364" fill="none" stroke="#000000" stroke-width="1" /><polygon points="2168,569 1725,872 1378,364" fill="none" stroke="#000000" stroke-width="1" /><polygon points="1725,872 1130,1150 1118,926" fill="none" stroke="#000000" stroke-width="1" /><polygon points="2800,1327 1725,872 2168,569" fill="none" stroke="#000000" stroke-width="1" /><polygon points="2191,2062 2280,2848 1153,1995" fill="none" stroke="#000000" stroke-width="1" /><polygon points="2280,2848 1839,3468 1153,1995" fill="none" stroke="#000000" stroke-width="1" /><polygon points="2280,2848 2800,1327 3023,4031" fill="none" stroke="#000000" stroke-width="1" /><polygon points="2800,1327 2280,2848 2191,2062" fill="none" stroke="#000000" stroke-width="1" /><polygon points="697,3209 1839,3468 1582,3836" fill="none" stroke="#000000" stroke-width="1" /><polygon points="477,3883 697,3209 1582,3836" fill="none" stroke="#000000" stroke-width="1" /><polygon points="1839,3468 697,3209 1153,1995" fill="none" stroke="#000000" stroke-width="1" /><polygon points="322,2604 697,3209 0,4031" fill="none" stroke="#000000" stroke-width="1" /><polygon points="697,3209 477,3883 0,4031" fill="none" stroke="#000000" stroke-width="1" /><polygon points="697,3209 556,2187 1153,1995" fill="none" stroke="#000000" stroke-width="1" /><polygon points="556,2187 697,3209 322,2604" fill="none" stroke="#000000" stroke-width="1" /><polygon points="556,2187 322,2604 0,0" fill="none" stroke="#000000" stroke-width="1" /><polygon points="1130,1150 556,2187 0,0" fill="none" stroke="#000000" stroke-width="1" /><polygon points="1546,1650 2191,2062 1153,1995" fill="none" stroke="#000000" stroke-width="1" /><polygon points="1546,1650 2800,1327 2191,2062" fill="none" stroke="#000000" stroke-width="1" /><polygon points="1546,1650 1725,872 2800,1327" fill="none" stroke="#000000" stroke-width="1" /><polygon points="2151,3611 2280,2848 3023,4031" fill="none" stroke="#000000" stroke-width="1" /><polygon points="2280,2848 2151,3611 1839,3468" fill="none" stroke="#000000" stroke-width="1" /><polygon points="1582,3836 2151,3611 3023,4031" fill="none" stroke="#000000" stroke-width="1" /><polygon points="1839,3468 2151,3611 1582,3836" fill="none" stroke="#000000" stroke-width="1" /><polygon points="556,2187 795,2016 1153,1995" fill="none" stroke="#000000" stroke-width="1" /><polygon points="795,2016 556,2187 1130,1150" fill="none" stroke="#000000" stroke-width="1" /><polygon points="1725,872 1307,1500 1130,1150" fill="none" stroke="#000000" stroke-width="1" /><polygon points="1546,1650 1307,1500 1725,872" fill="none" stroke="#000000" stroke-width="1" /><polygon points="1307,1500 1546,1650 1153,1995" fill="none" stroke="#000000" stroke-width="1" /><polygon points="1307,1500 795,2016 1130,1150" fill="none" stroke="#000000" stroke-width="1" /><polygon points="795,2016 1100,1977 1153,1995" fill="none" stroke="#000000" stroke-width="1" /><polygon points="1100,1977 1307,1500 1153,1995" fill="none" stroke="#000000" stroke-width="1" /><polygon points="1307,1500 1100,1977 795,2016" fill="none" stroke="#000000" stroke-width="1" /></g></svg>