<?xml version='1.0' encoding='utf-8'?>
<svg xmlns="http://www.w3.org/2000/svg" version="1.1" width="1024" height="1024" viewBox="0 0 1024 1024"><rect x="0" y="0" width="100%" height="100%" fill="#ffffff" /><metadata>geometry=delaunay; cascade=False; points=100; seed=42</metadata><g id="delaunay_regular"><polygon points="12,1797 0,4031 0,0" fill="none" stroke="#000000" stroke-width="1" /><polygon points="3023,0 1863,176 0,0" fill="none" stroke="#000000" stroke-width="1" /><polygon points="0,4031 2059,3933 3023,4031" fill="none" stroke="#000000" stroke-width="1" /><polygon points="2999,3336 2854,3095 2855,1815" fill="none" stroke="#000000" stroke-width="1" /><polygon points="3023,4031 2999,3336 3023,0" fill="none" stroke="#000000" stroke-width="1" /><polygon points="2999,3336 2855,1815 3023,0" fill="none" stroke="#000000" stroke-width="1" /><polygon points="1863,176 936,257 0,0" fill="none" stroke="#000000" stroke-width="1" /><polygon points="936,257 1863,176 1481,371" fill="none" stroke="#000000" stroke-width="1" /><polygon points="12,1797 134,2754 0,4031" fill="none" stroke="#000000" stroke-width="1" /><polygon points="932,3791 2059,3933 0,4031" fill="none" stroke="#000000" stroke-width="1" /><polygon points="2855,1815 2863,763 3023,0" fill="none" stroke="#000000" stroke-width="1" /><polygon points="2863,763 2702,647 3023,0" fill="none" stroke="#000000" stroke-width="1" /><polygon points="2854,3095 2595,2546 2855,1815" fill="none" stroke="#000000" stroke-width="1" /><polygon points="52,392 12,1797 0,0" fill="none" stroke="#000000" stroke-width="1" /><polygon points="52,392 107,736 12,1797" fill="none" stroke="#000000" stroke-width="1" /><polygon points="936,257 52,392 0,0" fill="none" stroke="#000000" stroke-width="1" /><polygon points="107,736 145,1495 12,1797" fill="none" stroke="#000000" stroke-width="1" /><polygon points="145,1495 107,736 669,916" fill="none" stroke="#000000" stroke-width="1" /><polygon points="134,2754 148,3601 0,4031" fill="none" stroke="#000000" stroke-width="1" /><polygon points="148,3601 134,2754 526,3208" fill="none" stroke="#000000" stroke-width="1" /><polygon points="146,2596 134,2754 12,1797" fill="none" stroke="#000000" stroke-width="1" /><polygon points="932,3791 1875,3719 2059,3933" fill="none" stroke="#000000" stroke-width="1" /><polygon points="2096,3736 1875,3719 1852,3460" fill="none" stroke="#000000" stroke-width="1" /><polygon points="1875,3719 2096,3736 2059,3933" fill="none" stroke="#000000" stroke-width="1" /><polygon points="2577,273 1863,176 3023,0" fill="none" stroke="#000000" stroke-width="1" /><polygon points="2577,273 2464,307 1863,176" fill="none" stroke="#000000" stroke-width="1" /><polygon points="2999,3336 2547,3385 2854,3095" fill="none" stroke="#000000" stroke-width="1" /><polygon points="2881,3579 2547,3385 2999,3336" fill="none" stroke="#000000" stroke-width="1" /><polygon points="2547,3385 2881,3579 2540,3461" fill="none" stroke="#000000" stroke-width="1" /><polygon points="2059,3933 2531,3913 3023,4031" fill="none" stroke="#000000" stroke-width="1" /><polygon points="2881,3579 2531,3913 2540,3461" fill="none" stroke="#000000" stroke-width="1" /><polygon points="2096,3736 2531,3913 2059,3933" fill="none" stroke="#000000" stroke-width="1" /><polygon points="2540,3461 2531,3913 2096,3736" fill="none" stroke="#000000" stroke-width="1" /><polygon points="1799,3056 1609,2966 2073,2700" fill="none" stroke="#000000" stroke-width="1" /><polygon points="1875,3719 1070,3357 1852,3460" fill="none" stroke="#000000" stroke-width="1" /><polygon points="1070,3357 1875,3719 932,3791" fill="none" stroke="#000000" stroke-width="1" /><polygon points="2595,2546 2455,1881 2855,1815" fill="none" stroke="#000000" stroke-width="1" /><polygon points="2455,1881 2733,1745 2855,1815" fill="none" stroke="#000000" stroke-width="1" /><polygon points="2733,1745 2455,1881 2527,1787" fill="none" stroke="#000000" stroke-width="1" /><polygon points="2455,1881 2395,1754 2527,1787" fill="none" stroke="#000000" stroke-width="1" /><polygon points="1457,563 936,257 1481,371" fill="none" stroke="#000000" stroke-width="1" /><polygon points="1457,563 964,812 936,257" fill="none" stroke="#000000" stroke-width="1" /><polygon points="964,812 1457,563 1394,1259" fill="none" stroke="#000000" stroke-width="1" /><polygon points="1457,563 1628,1162 1394,1259" fill="none" stroke="#000000" stroke-width="1" /><polygon points="606,666 964,812 669,916" fill="none" stroke="#000000" stroke-width="1" /><polygon points="964,812 606,666 936,257" fill="none" stroke="#000000" stroke-width="1" /><polygon points="796,1467 145,1495 669,916" fill="none" stroke="#000000" stroke-width="1" /><polygon points="932,3791 333,3651 526,3208" fill="none" stroke="#000000" stroke-width="1" /><polygon points="333,3651 932,3791 0,4031" fill="none" stroke="#000000" stroke-width="1" /><polygon points="180,2276 146,2596 12,1797" fill="none" stroke="#000000" stroke-width="1" /><polygon points="2577,273 2591,359 2464,307" fill="none" stroke="#000000" stroke-width="1" /><polygon points="2702,647 2591,359 3023,0" fill="none" stroke="#000000" stroke-width="1" /><polygon points="2591,359 2577,273 3023,0" fill="none" stroke="#000000" stroke-width="1" /><polygon points="2115,3393 2096,3736 1852,3460" fill="none" stroke="#000000" stroke-width="1" /><polygon points="2115,3393 2540,3461 2096,3736" fill="none" stroke="#000000" stroke-width="1" /><polygon points="2531,3913 2986,3900 3023,4031" fill="none" stroke="#000000" stroke-width="1" /><polygon points="2986,3900 2531,3913 2881,3579" fill="none" stroke="#000000" stroke-width="1" /><polygon points="2986,3900 2999,3336 3023,4031" fill="none" stroke="#000000" stroke-width="1" /><polygon points="2986,3900 2881,3579 2999,3336" fill="none" stroke="#000000" stroke-width="1" /><polygon points="1799,3056 1710,3120 1609,2966" fill="none" stroke="#000000" stroke-width="1" /><polygon points="2299,2203 2595,2546 2073,2700" fill="none" stroke="#000000" stroke-width="1" /><polygon points="2299,2203 2455,1881 2595,2546" fill="none" stroke="#000000" stroke-width="1" /><polygon points="2359,784 2189,1313 1628,1162" fill="none" stroke="#000000" stroke-width="1" /><polygon points="52,392 281,622 107,736" fill="none" stroke="#000000" stroke-width="1" /><polygon points="107,736 281,622 669,916" fill="none" stroke="#000000" stroke-width="1" /><polygon points="281,622 606,666 669,916" fill="none" stroke="#000000" stroke-width="1" /><polygon points="281,622 52,392 936,257" fill="none" stroke="#000000" stroke-width="1" /><polygon points="606,666 281,622 936,257" fill="none" stroke="#000000" stroke-width="1" /><polygon points="964,812 1055,1331 669,916" fill="none" stroke="#000000" stroke-width="1" /><polygon points="1055,1331 796,1467 669,916" fill="none" stroke="#000000" stroke-width="1" /><polygon points="1055,1331 964,812 1394,1259" fill="none" stroke="#000000" stroke-width="1" /><polygon points="796,1467 733,1816 145,1495" fill="none" stroke="#000000" stroke-width="1" /><polygon points="2189,1313 2085,1493 1628,1162" fill="none" stroke="#000000" stroke-width="1" /><polygon points="2085,1493 2189,1313 2395,1754" fill="none" stroke="#000000" stroke-width="1" /><polygon points="265,3621 148,3601 526,3208" fill="none" stroke="#000000" stroke-width="1" /><polygon points="333,3651 265,3621 526,3208" fill="none" stroke="#000000" stroke-width="1" /><polygon points="148,3601 265,3621 0,4031" fill="none" stroke="#000000" stroke-width="1" /><polygon points="265,3621 333,3651 0,4031" fill="none" stroke="#000000" stroke-width="1" /><polygon points="1710,3120 1298,3138 1609,2966" fill="none" stroke="#000000" stroke-width="1" /><polygon points="1070,3357 1298,3138 1852,3460" fill="none" stroke="#000000" stroke-width="1" /><polygon points="1298,3138 1710,3120 1852,3460" fill="none" stroke="#000000" stroke-width="1" /><polygon points="2073,2700 1280,2567 1730,1866" fill="none" stroke="#000000" stroke-width="1" /><polygon points="2644,2767 2595,2546 2854,3095" fill="none" stroke="#000000" stroke-width="1" /><polygon points="2547,3385 2702,3068 2854,3095" fill="none" stroke="#000000" stroke-width="1" /><polygon points="2644,2767 2483,2751 2595,2546" fill="none" stroke="#000000" stroke-width="1" /><polygon points="2483,2751 2644,2767 2564,2892" fill="none" stroke="#000000" stroke-width="1" /><polygon points="2318,2811 2483,2751 2564,2892" fill="none" stroke="#000000" stroke-width="1" /><polygon points="2318,2811 1799,3056 2073,2700" fill="none" stroke="#000000" stroke-width="1" /><polygon points="2595,2546 2318,2811 2073,2700" fill="none" stroke="#000000" stroke-width="1" /><polygon points="2483,2751 2318,2811 2595,2546" fill="none" stroke="#000000" stroke-width="1" /><polygon points="2455,1881 2261,2122 2395,1754" fill="none" stroke="#000000" stroke-width="1" /><polygon points="2299,2203 2261,2122 2455,1881" fill="none" stroke="#000000" stroke-width="1" /><polygon points="2261,2122 2073,2700 1730,1866" fill="none" stroke="#000000" stroke-width="1" /><polygon points="2261,2122 2299,2203 2073,2700" fill="none" stroke="#000000" stroke-width="1" /><polygon points="2464,307 2178,379 1863,176" fill="none" stroke="#000000" stroke-width="1" /><polygon points="1457,563 1665,516 1628,1162" fill="none" stroke="#000000" stroke-width="1" /><polygon points="1665,516 2359,784 1628,1162" fill="none" stroke="#000000" stroke-width="1" /><polygon points="1665,516 2178,379 2359,784" fill="none" stroke="#000000" stroke-width="1" /><polygon points="2178,379 1665,516 1863,176" fill="none" stroke="#000000" stroke-width="1" /><polygon points="1665,516 1457,563 1481,371" fill="none" stroke="#000000" stroke-width="1" /><polygon points="2591,359 2547,523 2464,307" fill="none" stroke="#000000" stroke-width="1" /><polygon points="2547,523 2178,379 2464,307" fill="none" stroke="#000000" stroke-width="1" /><polygon points="2178,379 2547,523 2359,784" fill="none" stroke="#000000" stroke-width="1" /><polygon points="2547,523 2591,359 2702,647" fill="none" stroke="#000000" stroke-width="1" /><polygon points="2359,784 2547,523 2702,647" fill="none" stroke="#000000" stroke-width="1" /><polygon points="2359,784 2689,1115 2189,1313" fill="none" stroke="#000000" stroke-width="1" /><polygon points="2689,1115 2863,763 2855,1815" fill="none" stroke="#000000" stroke-width="1" /><polygon points="2733,1745 2689,1115 2855,1815" fill="none" stroke="#000000" stroke-width="1" /><polygon points="2689,1115 2733,1745 2527,1787" fill="none" stroke="#000000" stroke-width="1" /><polygon points="2395,1754 2689,1115 2527,1787" fill="none" stroke="#000000" stroke-width="1" /><polygon points="2189,1313 2689,1115 2395,1754" fill="none" stroke="#000000" stroke-width="1" /><polygon points="1337,1429 1055,1331 1394,1259" fill="none" stroke="#000000" stroke-width="1" /><polygon points="943,1562 733,1816 796,1467" fill="none" stroke="#000000" stroke-width="1" /><polygon points="1337,1429 943,1562 1055,1331" fill="none" stroke="#000000" stroke-width="1" /><polygon points="1796,1762 2085,1493 2395,1754" fill="none" stroke="#000000" stroke-width="1" /><polygon points="1796,1762 2261,2122 1730,1866" fill="none" stroke="#000000" stroke-width="1" /><polygon points="2261,2122 1796,1762 2395,1754" fill="none" stroke="#000000" stroke-width="1" /><polygon points="851,2997 788,3151 526,3208" fill="none" stroke="#000000" stroke-width="1" /><polygon points="788,3151 932,3791 526,3208" fill="none" stroke="#000000" stroke-width="1" /><polygon points="788,3151 1070,3357 932,3791" fill="none" stroke="#000000" stroke-width="1" /><polygon points="134,2754 639,2639 526,3208" fill="none" stroke="#000000" stroke-width="1" /><polygon points="639,2639 851,2997 526,3208" fill="none" stroke="#000000" stroke-width="1" /><polygon points="146,2596 639,2639 134,2754" fill="none" stroke="#000000" stroke-width="1" /><polygon points="851,2997 639,2639 1082,2733" fill="none" stroke="#000000" stroke-width="1" /><polygon points="1298,3138 1408,2823 1609,2966" fill="none" stroke="#000000" stroke-width="1" /><polygon points="1408,2823 1298,3138 1082,2733" fill="none" stroke="#000000" stroke-width="1" /><polygon points="1280,2567 1408,2823 1082,2733" fill="none" stroke="#000000" stroke-width="1" /><polygon points="1074,3317 1298,3138 1070,3357" fill="none" stroke="#000000" stroke-width="1" /><polygon points="788,3151 1074,3317 1070,3357" fill="none" stroke="#000000" stroke-width="1" /><polygon points="1177,3169 851,2997 1082,2733" fill="none" stroke="#000000" stroke-width="1" /><polygon points="1298,3138 1177,3169 1082,2733" fill="none" stroke="#000000" stroke-width="1" /><polygon points="1074,3317 1177,3169 1298,3138" fill="none" stroke="#000000" stroke-width="1" /><polygon points="1177,3169 788,3151 851,2997" fill="none" stroke="#000000" stroke-width="1" /><polygon points="1177,3169 1074,3317 788,3151" fill="none" stroke="#000000" stroke-width="1" /><polygon points="733,1816 266,2007 145,1495" fill="none" stroke="#000000" stroke-width="1" /><polygon points="223,2236 266,2007 475,2199" fill="none" stroke="#000000" stroke-width="1" /><polygon points="738,1893 266,2007 733,1816" fill="none" stroke="#000000" stroke-width="1" /><polygon points="266,2007 738,1893 475,2199" fill="none" stroke="#000000" stroke-width="1" /><polygon points="2442,3244 2702,3068 2547,3385" fill="none" stroke="#000000" stroke-width="1" /><polygon points="2442,3244 2318,2811 2564,2892" fill="none" stroke="#000000" stroke-width="1" /><polygon points="2442,3244 2547,3385 2540,3461" fill="none" stroke="#000000" stroke-width="1" /><polygon points="2115,3393 2442,3244 2540,3461" fill="none" stroke="#000000" stroke-width="1" /><polygon points="2728,3063 2644,2767 2854,3095" fill="none" stroke="#000000" stroke-width="1" /><polygon points="2702,3068 2728,3063 2854,3095" fill="none" stroke="#000000" stroke-width="1" /><polygon points="2318,2811 2022,3355 1799,3056" fill="none" stroke="#000000" stroke-width="1" /><polygon points="2022,3355 2115,3393 1852,3460" fill="none" stroke="#000000" stroke-width="1" /><polygon points="2022,3355 2442,3244 2115,3393" fill="none" stroke="#000000" stroke-width="1" /><polygon points="2442,3244 2022,3355 2318,2811" fill="none" stroke="#000000" stroke-width="1" /><polygon points="1710,3120 2022,3355 1852,3460" fill="none" stroke="#000000" stroke-width="1" /><polygon points="2022,3355 1710,3120 1799,3056" fill="none" stroke="#000000" stroke-width="1" /><polygon points="1863,176 1603,346 1481,371" fill="none" stroke="#000000" stroke-width="1" /><polygon points="1603,346 1665,516 1481,371" fill="none" stroke="#000000" stroke-width="1" /><polygon points="1665,516 1603,346 1863,176" fill="none" stroke="#000000" stroke-width="1" /><polygon points="2712,914 2359,784 2702,647" fill="none" stroke="#000000" stroke-width="1" /><polygon points="2863,763 2712,914 2702,647" fill="none" stroke="#000000" stroke-width="1" /><polygon points="1055,1331 903,1478 796,1467" fill="none" stroke="#000000" stroke-width="1" /><polygon points="903,1478 943,1562 796,1467" fill="none" stroke="#000000" stroke-width="1" /><polygon points="943,1562 903,1478 1055,1331" fill="none" stroke="#000000" stroke-width="1" /><polygon points="943,1562 953,2069 733,1816" fill="none" stroke="#000000" stroke-width="1" /><polygon points="953,2069 738,1893 733,1816" fill="none" stroke="#000000" stroke-width="1" /><polygon points="953,2069 1280,2567 1082,2733" fill="none" stroke="#000000" stroke-width="1" /><polygon points="738,1893 953,2069 475,2199" fill="none" stroke="#000000" stroke-width="1" /><polygon points="624,2539 639,2639 146,2596" fill="none" stroke="#000000" stroke-width="1" /><polygon points="180,2276 624,2539 146,2596" fill="none" stroke="#000000" stroke-width="1" /><polygon points="953,2069 624,2539 475,2199" fill="none" stroke="#000000" stroke-width="1" /><polygon points="223,2236 624,2539 180,2276" fill="none" stroke="#000000" stroke-width="1" /><polygon points="624,2539 223,2236 475,2199" fill="none" stroke="#000000" stroke-width="1" /><polygon points="639,2639 624,2539 1082,2733" fill="none" stroke="#000000" stroke-width="1" /><polygon points="624,2539 953,2069 1082,2733" fill="none" stroke="#000000" stroke-width="1" /><polygon points="1498,2824 1280,2567 2073,2700" fill="none" stroke="#000000" stroke-width="1" /><polygon points="1498,2824 1408,2823 1280,2567" fill="none" stroke="#000000" stroke-width="1" /><polygon points="1609,2966 1498,2824 2073,2700" fill="none" stroke="#000000" stroke-width="1" /><polygon points="1408,2823 1498,2824 1609,2966" fill="none" stroke="#000000" stroke-width="1" /><polygon points="145,1495 116,1918 12,1797" fill="none" stroke="#000000" stroke-width="1" /><polygon points="266,2007 116,1918 145,1495" fill="none" stroke="#000000" stroke-width="1" /><polygon points="116,1918 180,2276 12,1797" fill="none" stroke="#000000" stroke-width="1" /><polygon points="116,1918 223,2236 180,2276" fill="none" stroke="#000000" stroke-width="1" /><polygon points="116,1918 266,2007 223,2236" fill="none" stroke="#000000" stroke-width="1" /><polygon points="2635,3002 2442,3244 2564,2892" fill="none" stroke="#000000" stroke-width="1" /><polygon points="2442,3244 2635,3002 2702,3068" fill="none" stroke="#000000" stroke-width="1" /><polygon points="2635,3002 2728,3063 2702,3068" fill="none" stroke="#000000" stroke-width="1" /><polygon points="2644,2767 2635,3002 2564,2892" fill="none" stroke="#000000" stroke-width="1" /><polygon points="2728,3063 2635,3002 2644,2767" fill="none" stroke="#000000" stroke-width="1" /><polygon points="2711,965 2689,1115 2359,784" fill="none" stroke="#000000" stroke-width="1" /><polygon points="2712,914 2711,965 2359,784" fill="none" stroke="#000000" stroke-width="1" /><polygon points="2689,1115 2711,965 2863,763" fill="none" stroke="#000000" stroke-width="1" /><polygon points="2711,965 2712,914 2863,763" fill="none" stroke="#000000" stroke-width="1" /><polygon points="1644,1769 1796,1762 1730,1866" fill="none" stroke="#000000" stroke-width="1" /><polygon points="1227,2017 943,1562 1337,1429" fill="none" stroke="#000000" stroke-width="1" /><polygon points="1227,2017 953,2069 943,1562" fill="none" stroke="#000000" stroke-width="1" /><polygon points="1227,2017 1644,1769 1730,1866" fill="none" stroke="#000000" stroke-width="1" /><polygon points="1280,2567 1227,2017 1730,1866" fill="none" stroke="#000000" stroke-width="1" /><polygon points="953,2069 1227,2017 1280,2567" fill="none" stroke="#000000" stroke-width="1" /><polygon points="1644,1769 1644,1656 1796,1762" fill="none" stroke="#000000" stroke-width="1" /><polygon points="2085,1493 1644,1656 1628,1162" fill="none" stroke="#000000" stroke-width="1" /><polygon points="1796,1762 1644,1656 2085,1493" fill="none" stroke="#000000" stroke-width="1" /><polygon points="1587,1622 1227,2017 1337,1429" fill="none" stroke="#000000" stroke-width="1" /><polygon points="1227,2017 1587,1622 1644,1769" fill="none" stroke="#000000" stroke-width="1" /><polygon points="1587,1622 1644,1656 1644,1769" fill="none" stroke="#000000" stroke-width="1" /><polygon points="1587,1622 1337,1429 1394,1259" fill="none" stroke="#000000" stroke-width="1" /><polygon points="1628,1162 1587,1622 1394,1259" fill="none" stroke="#000000" stroke-width="1" /><polygon points="1644,1656 1587,1622 1628,1162" fill="none" stroke="#000000" stroke-width="1" /></g></svg>