<?xml version='1.0' encoding='utf-8'?>
<svg xmlns="http://www.w3.org/2000/svg" version="1.1" width="1024" height="1024" viewBox="0 0 1024 1024"><rect x="0" y="0" width="100%" height="100%" fill="#ffffff" /><metadata>geometry=rectangles; cascade=False; points=100; seed=42</metadata><g id="rectangles_regular"><rect x="0" y="0" width="336" height="448" fill="#ffffff" stroke="#000000" stroke-width="1" /><rect x="336" y="0" width="336" height="448" fill="#ffffff" stroke="#000000" stroke-width="1" /><rect x="672" y="0" width="336" height="448" fill="#ffffff" stroke="#000000" stroke-width="1" /><rect x="1008" y="0" width="336" height="448" fill="#ffffff" stroke="#000000" stroke-width="1" /><rect x="1344" y="0" width="336" height="448" fill="#ffffff" stroke="#000000" stroke-width="1" /><rect x="1680" y="0" width="336" height="448" fill="#ffffff" stroke="#000000" stroke-width="1" /><rect x="2016" y="0" width="336" height="448" fill="#ffffff" stroke="#000000" stroke-width="1" /><rect x="2352" y="0" width="336" height="448" fill="#ffffff" stroke="#000000" stroke-width="1" /><rect x="2688" y="0" width="336" height="448" fill="#ffffff" stroke="#000000" stroke-width="1" /><rect x="0" y="448" width="336" height="448" fill="#ffffff" stroke="#000000" stroke-width="1" /><rect x="336" y="448" width="336" height="448" fill="#ffffff" stroke="#000000" stroke-width="1" /><rect x="672" y="448" width="336" height="448" fill="#ffffff" stroke="#000000" stroke-width="1" /><rect x="1008" y="448" width="336" height="448" fill="#ffffff" stroke="#000000" stroke-width="1" /><rect x="1344" y="448" width="336" height="448" fill="#ffffff" stroke="#000000" stroke-width="1" /><rect x="1680" y="448" width="336" height="448" fill="#ffffff" stroke="#000000" stroke-width="1" /><rect x="2016" y="448" width="336" height="448" fill="#ffffff" stroke="#000000" stroke-width="1" /><rect x="2352" y="448" width="336" height="448" fill="#ffffff" stroke="#000000" stroke-width="1" /><rect x="2688" y="448" width="336" height="448" fill="#ffffff" stroke="#000000" stroke-width="1" /><rect x="0" y="896" width="336" height="448" fill="#ffffff" stroke="#000000" stroke-width="1" /><rect x="336" y="896" width="336" height="448" fill="#ffffff" stroke="#000000" stroke-width="1" /><rect x="672" y="896" width="336" height="448" fill="#ffffff" stroke="#000000" stroke-width="1" /><rect x="1008" y="896" width="336" height="448" fill="#ffffff" stroke="#000000" stroke-width="1" /><rect x="1344" y="896" width="336" height="448" fill="#ffffff" stroke="#000000" stroke-width="1" /><rect x="1680" y="896" width="336" height="448" fill="#ffffff" stroke="#000000" stroke-width="1" /><rect x="2016" y="896" width="336" height="448" fill="#ffffff" stroke="#000000" stroke-width="1" /><rect x="2352" y="896" width="336" height="448" fill="#ffffff" stroke="#000000" stroke-width="1" /><rect x="2688" y="896" width="336" height="448" fill="#ffffff" stroke="#000000" stroke-width="1" /><rect x="0" y="1344" width="336" height="448" fill="#ffffff" stroke="#000000" stroke-width="1" /><rect x="336" y="1344" width="336" height="448" fill="#ffffff" stroke="#000000" stroke-width="1" /><rect x="672" y="1344" width="336" height="448" fill="#ffffff" stroke="#000000" stroke-width="1" /><rect x="1008" y="1344" width="336" height="448" fill="#ffffff" stroke="#000000" stroke-width="1" /><rect x="1344" y="1344" width="336" height="448" fill="#ffffff" stroke="#000000" stroke-width="1" /><rect x="1680" y="1344" width="336" height="448" fill="#ffffff" stroke="#000000" stroke-width="1" /><rect x="2016" y="1344" width="336" height="448" fill="#ffffff" stroke="#000000" stroke-width="1" /><rect x="2352" y="1344" width="336" height="448" fill="#ffffff" stroke="#000000" stroke-width="1" /><rect x="2688" y="1344" width="336" height="448" fill="#ffffff" stroke="#000000" stroke-width="1" /><rect x="0" y="1792" width="336" height="448" fill="#ffffff" stroke="#000000" stroke-width="1" /><rect x="336" y="1792" width="336" height="448" fill="#ffffff" stroke="#000000" stroke-width="1" /><rect x="672" y="1792" width="336" height="448" fill="#ffffff" stroke="#000000" stroke-width="1" /><rect x="1008" y="1792" width="336" height="448" fill="#ffffff" stroke="#000000" stroke-width="1" /><rect x="1344" y="1792" width="336" height="448" fill="#ffffff" stroke="#000000" stroke-width="1" /><rect x="1680" y="1792" width="336" height="448" fill="#ffffff" stroke="#000000" stroke-width="1" /><rect x="2016" y="1792" width="336" height="448" fill="#ffffff" stroke="#000000" stroke-width="1" /><rect x="2352" y="1792" width="336" height="448" fill="#ffffff" stroke="#000000" stroke-width="1" /><rect x="2688" y="1792" width="336" height="448" fill="#ffffff" stroke="#000000" stroke-width="1" /><rect x="0" y="2240" width="336" height="448" fill="#ffffff" stroke="#000000" stroke-width="1" /><rect x="336" y="2240" width="336" height="448" fill="#ffffff" stroke="#000000" stroke-width="1" /><rect x="672" y="2240" width="336" height="448" fill="#ffffff" stroke="#000000" stroke-width="1" /><rect x="1008" y="2240" width="336" height="448" fill="#ffffff" stroke="#000000" stroke-width="1" /><rect x="1344" y="2240" width="336" height="448" fill="#ffffff" stroke="#000000" stroke-width="1" /><rect x="1680" y="2240" width="336" height="448" fill="#ffffff" stroke="#000000" stroke-width="1" /><rect x="2016" y="2240" width="336" height="448" fill="#ffffff" stroke="#000000" stroke-width="1" /><rect x="2352" y="2240" width="336" height="448" fill="#ffffff" stroke="#000000" stroke-width="1" /><rect x="2688" y="2240" width="336" height="448" fill="#ffffff" stroke="#000000" stroke-width="1" /><rect x="0" y="2688" width="336" height="448" fill="#ffffff" stroke="#000000" stroke-width="1" /><rect x="336" y="2688" width="336" height="448" fill="#ffffff" stroke="#000000" stroke-width="1" /><rect x="672" y="2688" width="336" height="448" fill="#ffffff" stroke="#000000" stroke-width="1" /><rect x="1008" y="2688" width="336" height="448" fill="#ffffff" stroke="#000000" stroke-width="1" /><rect x="1344" y="2688" width="336" height="448" fill="#ffffff" stroke="#000000" stroke-width="1" /><rect x="1680" y="2688" width="336" height="448" fill="#ffffff" stroke="#000000" stroke-width="1" /><rect x="2016" y="2688" width="336" height="448" fill="#ffffff" stroke="#000000" stroke-width="1" /><rect x="2352" y="2688" width="336" height="448" fill="#ffffff" stroke="#000000" stroke-width="1" /><rect x="2688" y="2688" width="336" height="448" fill="#ffffff" stroke="#000000" stroke-width="1" /><rect x="0" y="3136" width="336" height="448" fill="#ffffff" stroke="#000000" stroke-width="1" /><rect x="336" y="3136" width="336" height="448" fill="#ffffff" stroke="#000000" stroke-width="1" /><rect x="672" y="3136" width="336" height="448" fill="#ffffff" stroke="#000000" stroke-width="1" /><rect x="1008" y="3136" width="336" height="448" fill="#ffffff" stroke="#000000" stroke-width="1" /><rect x="1344" y="3136" width="336" height="448" fill="#ffffff" stroke="#000000" stroke-width="1" /><rect x="1680" y="3136" width="336" height="448" fill="#ffffff" stroke="#000000" stroke-width="1" /><rect x="2016" y="3136" width="336" height="448" fill="#ffffff" stroke="#000000" stroke-width="1" /><rect x="2352" y="3136" width="336" height="448" fill="#ffffff" stroke="#000000" stroke-width="1" /><rect x="2688" y="3136" width="336" height="448" fill="#ffffff" stroke="#000000" stroke-width="1" /><rect x="0" y="3584" width="336" height="448" fill="#ffffff" stroke="#000000" stroke-width="1" /><rect x="336" y="3584" width="336" height="448" fill="#ffffff" stroke="#000000" stroke-width="1" /><rect x="672" y="3584" width="336" height="448" fill="#ffffff" stroke="#000000" stroke-width="1" /><rect x="1008" y="3584" width="336" height="448" fill="#ffffff" stroke="#000000" stroke-width="1" /><rect x="1344" y="3584" width="336" height="448" fill="#ffffff" stroke="#000000" stroke-width="1" /><rect x="1680" y="3584" width="336" height="448" fill="#ffffff" stroke="#000000" stroke-width="1" /><rect x="2016" y="3584" width="336" height="448" fill="#ffffff" stroke="#000000" stroke-width="1" /><rect x="2352" y="3584" width="336" height="448" fill="#ffffff" stroke="#000000" stroke-width="1" /><rect x="2688" y="3584" width="336" height="448" fill="#ffffff" stroke="#000000" stroke-width="1" /></g></svg>