<?xml version='1.0' encoding='utf-8'?>
<svg xmlns="http://www.w3.org/2000/svg" version="1.1" width="1024" height="1024" viewBox="0 0 1024 1024"><rect x="0" y="0" width="100%" height="100%" fill="#ffffff" /><metadata>geometry=voronoi; cascade=False; points=20</metadata><g id="voronoi_regular"><polygon points="2320,1329 2190,863 1849,629 1487,1037 1402,1329" fill="none" stroke="#000000" stroke-width="1" /><polygon points="2370,1481 2320,1329 1402,1329 1293,1683 1530,2009" fill="none" stroke="#000000" stroke-width="1" /><polygon points="1530,2009 1293,1683 100,1599 600,2765 1211,2649 1566,2115" fill="none" stroke="#000000" stroke-width="1" /><polygon points="2851,260 1511,-4028 1387,-1820 1394,-1755 1835,242" fill="none" stroke="#000000" stroke-width="1" /><polygon points="3063,1624 2351,886 3347,693 7248,2015 6276,2131 3654,1852" fill="none" stroke="#000000" stroke-width="1" /><polygon points="476,2911 425,3483 1329,3437 1211,2649 600,2765" fill="none" stroke="#000000" stroke-width="1" /><polygon points="1394,-1755 845,616 -33,853 1387,-1820" fill="none" stroke="#000000" stroke-width="1" /><polygon points="2137,3010 2149,2784 5477,2382 2837,3521" fill="none" stroke="#000000" stroke-width="1" /><polygon points="3063,1624 2351,886 2190,863 2320,1329 2370,1481" fill="none" stroke="#000000" stroke-width="1" /><polygon points="2137,3010 1625,3720 1880,4682 2837,3521" fill="none" stroke="#000000" stroke-width="1" /><polygon points="2998,446 1856,569 1835,242 2851,260" fill="none" stroke="#000000" stroke-width="1" /><polygon points="1625,3720 1329,3437 425,3483 359,3556 1511,8217 1880,4682" fill="none" stroke="#000000" stroke-width="1" /><polygon points="1795,2248 2149,2784 2137,3010 1625,3720 1329,3437 1211,2649 1566,2115" fill="none" stroke="#000000" stroke-width="1" /><polygon points="1402,1329 1487,1037 845,616 -33,853 -597,1341 100,1599 1293,1683" fill="none" stroke="#000000" stroke-width="1" /><polygon points="1856,569 1849,629 1487,1037 845,616 1394,-1755 1835,242" fill="none" stroke="#000000" stroke-width="1" /><polygon points="476,2911 -3568,1593 -597,1341 100,1599 600,2765" fill="none" stroke="#000000" stroke-width="1" /><polygon points="2190,863 1849,629 1856,569 2998,446 3347,693 2351,886" fill="none" stroke="#000000" stroke-width="1" /><polygon points="3063,1624 2370,1481 1530,2009 1566,2115 1795,2248 3654,1852" fill="none" stroke="#000000" stroke-width="1" /><polygon points="476,2911 -3568,1593 -24247,2015 359,3556 425,3483" fill="none" stroke="#000000" stroke-width="1" /><polygon points="3654,1852 6276,2131 5477,2382 2149,2784 1795,2248" fill="none" stroke="#000000" stroke-width="1" /></g></svg>