<?xml version='1.0' encoding='utf-8'?>
<svg xmlns="http://www.w3.org/2000/svg" version="1.1" width="1024" height="1024" viewBox="0 0 1024 1024"><rect x="0" y="0" width="100%" height="100%" fill="#ffffff" /><metadata>geometry=delaunay; cascade=False; points=20</metadata><g id="delaunay_regular"><polygon points="3023,4031 2692,2175 3023,0" fill="none" stroke="#000000" stroke-width="1" /><polygon points="1276,1600 492,2318 0,0" fill="none" stroke="#000000" stroke-width="1" /><polygon points="1107,203 1276,1600 0,0" fill="none" stroke="#000000" stroke-width="1" /><polygon points="3023,0 1107,203 0,0" fill="none" stroke="#000000" stroke-width="1" /><polygon points="1464,254 1107,203 3023,0" fill="none" stroke="#000000" stroke-width="1" /><polygon points="2692,2175 2613,722 3023,0" fill="none" stroke="#000000" stroke-width="1" /><polygon points="2613,722 1464,254 3023,0" fill="none" stroke="#000000" stroke-width="1" /><polygon points="53,3173 0,4031 0,0" fill="none" stroke="#000000" stroke-width="1" /><polygon points="492,2318 53,3173 0,0" fill="none" stroke="#000000" stroke-width="1" /><polygon points="1107,203 1450,766 1276,1600" fill="none" stroke="#000000" stroke-width="1" /><polygon points="1450,766 1107,203 1464,254" fill="none" stroke="#000000" stroke-width="1" /><polygon points="2613,722 1450,766 1464,254" fill="none" stroke="#000000" stroke-width="1" /><polygon points="1197,2815 492,2318 1276,1600" fill="none" stroke="#000000" stroke-width="1" /><polygon points="1980,2230 1197,2815 1276,1600" fill="none" stroke="#000000" stroke-width="1" /><polygon points="1197,2815 1980,2230 1634,2826" fill="none" stroke="#000000" stroke-width="1" /><polygon points="1980,2230 2460,2660 1634,2826" fill="none" stroke="#000000" stroke-width="1" /><polygon points="893,3840 1197,2815 1634,2826" fill="none" stroke="#000000" stroke-width="1" /><polygon points="1853,1259 1450,766 2613,722" fill="none" stroke="#000000" stroke-width="1" /><polygon points="1853,1259 2613,722 2692,2175" fill="none" stroke="#000000" stroke-width="1" /><polygon points="1980,2230 1853,1259 2692,2175" fill="none" stroke="#000000" stroke-width="1" /><polygon points="478,2662 53,3173 492,2318" fill="none" stroke="#000000" stroke-width="1" /><polygon points="1197,2815 478,2662 492,2318" fill="none" stroke="#000000" stroke-width="1" /><polygon points="2669,3950 2460,2660 3023,4031" fill="none" stroke="#000000" stroke-width="1" /><polygon points="2460,2660 2669,3950 1634,2826" fill="none" stroke="#000000" stroke-width="1" /><polygon points="2669,3950 893,3840 1634,2826" fill="none" stroke="#000000" stroke-width="1" /><polygon points="0,4031 2669,3950 3023,4031" fill="none" stroke="#000000" stroke-width="1" /><polygon points="893,3840 2669,3950 0,4031" fill="none" stroke="#000000" stroke-width="1" /><polygon points="2541,2478 1980,2230 2692,2175" fill="none" stroke="#000000" stroke-width="1" /><polygon points="2541,2478 2460,2660 1980,2230" fill="none" stroke="#000000" stroke-width="1" /><polygon points="2541,2478 2692,2175 3023,4031" fill="none" stroke="#000000" stroke-width="1" /><polygon points="2460,2660 2541,2478 3023,4031" fill="none" stroke="#000000" stroke-width="1" /><polygon points="53,3173 154,3830 0,4031" fill="none" stroke="#000000" stroke-width="1" /><polygon points="154,3830 893,3840 0,4031" fill="none" stroke="#000000" stroke-width="1" /><polygon points="1450,766 1547,1318 1276,1600" fill="none" stroke="#000000" stroke-width="1" /><polygon points="1853,1259 1547,1318 1450,766" fill="none" stroke="#000000" stroke-width="1" /><polygon points="1547,1318 1980,2230 1276,1600" fill="none" stroke="#000000" stroke-width="1" /><polygon points="1547,1318 1853,1259 1980,2230" fill="none" stroke="#000000" stroke-width="1" /><polygon points="893,3840 791,3700 1197,2815" fill="none" stroke="#000000" stroke-width="1" /><polygon points="791,3700 478,2662 1197,2815" fill="none" stroke="#000000" stroke-width="1" /><polygon points="478,2662 791,3700 53,3173" fill="none" stroke="#000000" stroke-width="1" /><polygon points="791,3700 154,3830 53,3173" fill="none" stroke="#000000" stroke-width="1" /><polygon points="154,3830 791,3700 893,3840" fill="none" stroke="#000000" stroke-width="1" /></g></svg>