<?xml version='1.0' encoding='utf-8'?>
<svg xmlns="http://www.w3.org/2000/svg" version="1.1" width="1024" height="1024" viewBox="0 0 1024 1024"><rect x="0" y="0" width="100%" height="100%" fill="#ffffff" /><metadata>geometry=delaunay; cascade=False; points=20</metadata><g id="delaunay_regular"><polygon points="3023,0 1308,232 0,0" fill="none" stroke="#000000" stroke-width="1" /><polygon points="67,2016 0,4031 0,0" fill="none" stroke="#000000" stroke-width="1" /><polygon points="2259,2115 2517,2058 3023,4031" fill="none" stroke="#000000" stroke-width="1" /><polygon points="0,4031 1295,3446 3023,4031" fill="none" stroke="#000000" stroke-width="1" /><polygon points="1295,3446 2259,2115 3023,4031" fill="none" stroke="#000000" stroke-width="1" /><polygon points="165,1130 67,2016 0,0" fill="none" stroke="#000000" stroke-width="1" /><polygon points="2353,318 1308,232 3023,0" fill="none" stroke="#000000" stroke-width="1" /><polygon points="2353,318 1375,572 1308,232" fill="none" stroke="#000000" stroke-width="1" /><polygon points="1375,572 2353,318 2306,1174" fill="none" stroke="#000000" stroke-width="1" /><polygon points="3023,4031 2961,692 3023,0" fill="none" stroke="#000000" stroke-width="1" /><polygon points="2517,2058 2961,692 3023,4031" fill="none" stroke="#000000" stroke-width="1" /><polygon points="2961,692 2353,318 3023,0" fill="none" stroke="#000000" stroke-width="1" /><polygon points="2353,318 2961,692 2306,1174" fill="none" stroke="#000000" stroke-width="1" /><polygon points="67,2016 94,3629 0,4031" fill="none" stroke="#000000" stroke-width="1" /><polygon points="94,3629 1295,3446 0,4031" fill="none" stroke="#000000" stroke-width="1" /><polygon points="2259,2115 975,2520 1887,1837" fill="none" stroke="#000000" stroke-width="1" /><polygon points="1295,3446 975,2520 2259,2115" fill="none" stroke="#000000" stroke-width="1" /><polygon points="975,2520 94,3629 67,2016" fill="none" stroke="#000000" stroke-width="1" /><polygon points="94,3629 975,2520 1295,3446" fill="none" stroke="#000000" stroke-width="1" /><polygon points="2279,1292 2259,2115 1887,1837" fill="none" stroke="#000000" stroke-width="1" /><polygon points="2259,2115 2279,1292 2517,2058" fill="none" stroke="#000000" stroke-width="1" /><polygon points="2279,1292 2961,692 2517,2058" fill="none" stroke="#000000" stroke-width="1" /><polygon points="2961,692 2279,1292 2306,1174" fill="none" stroke="#000000" stroke-width="1" /><polygon points="1375,572 1015,445 1308,232" fill="none" stroke="#000000" stroke-width="1" /><polygon points="1308,232 1015,445 0,0" fill="none" stroke="#000000" stroke-width="1" /><polygon points="975,2520 1226,1670 1887,1837" fill="none" stroke="#000000" stroke-width="1" /><polygon points="165,1130 1226,1670 67,2016" fill="none" stroke="#000000" stroke-width="1" /><polygon points="1226,1670 975,2520 67,2016" fill="none" stroke="#000000" stroke-width="1" /><polygon points="1642,1285 1375,572 2306,1174" fill="none" stroke="#000000" stroke-width="1" /><polygon points="2279,1292 1642,1285 2306,1174" fill="none" stroke="#000000" stroke-width="1" /><polygon points="1642,1285 2279,1292 1887,1837" fill="none" stroke="#000000" stroke-width="1" /><polygon points="1147,1028 1226,1670 165,1130" fill="none" stroke="#000000" stroke-width="1" /><polygon points="1642,1285 1147,1028 1375,572" fill="none" stroke="#000000" stroke-width="1" /><polygon points="1226,1670 1556,1520 1887,1837" fill="none" stroke="#000000" stroke-width="1" /><polygon points="1556,1520 1642,1285 1887,1837" fill="none" stroke="#000000" stroke-width="1" /><polygon points="1147,1028 1556,1520 1226,1670" fill="none" stroke="#000000" stroke-width="1" /><polygon points="1556,1520 1147,1028 1642,1285" fill="none" stroke="#000000" stroke-width="1" /><polygon points="917,787 1147,1028 165,1130" fill="none" stroke="#000000" stroke-width="1" /><polygon points="917,787 165,1130 0,0" fill="none" stroke="#000000" stroke-width="1" /><polygon points="1015,445 917,787 0,0" fill="none" stroke="#000000" stroke-width="1" /><polygon points="917,787 1015,445 1375,572" fill="none" stroke="#000000" stroke-width="1" /><polygon points="1147,1028 917,787 1375,572" fill="none" stroke="#000000" stroke-width="1" /></g></svg>