<?xml version='1.0' encoding='utf-8'?>
<svg xmlns="http://www.w3.org/2000/svg" version="1.1" width="1024" height="1024" viewBox="0 0 1024 1024"><rect x="0" y="0" width="100%" height="100%" fill="#ffffff" /><metadata>geometry=rectangles; cascade=False; points=20</metadata><g id="rectangles_regular"><rect x="0" y="0" width="756" height="1008" fill="#ffffff" stroke="#000000" stroke-width="1" /><rect x="756" y="0" width="756" height="1008" fill="#ffffff" stroke="#000000" stroke-width="1" /><rect x="1512" y="0" width="756" height="1008" fill="#ffffff" stroke="#000000" stroke-width="1" /><rect x="2268" y="0" width="756" height="1008" fill="#ffffff" stroke="#000000" stroke-width="1" /><rect x="0" y="1008" width="756" height="1008" fill="#ffffff" stroke="#000000" stroke-width="1" /><rect x="756" y="1008" width="756" height="1008" fill="#ffffff" stroke="#000000" stroke-width="1" /><rect x="1512" y="1008" width="756" height="1008" fill="#ffffff" stroke="#000000" stroke-width="1" /><rect x="2268" y="1008" width="756" height="1008" fill="#ffffff" stroke="#000000" stroke-width="1" /><rect x="0" y="2016" width="756" height="1008" fill="#ffffff" stroke="#000000" stroke-width="1" /><rect x="756" y="2016" width="756" height="1008" fill="#ffffff" stroke="#000000" stroke-width="1" /><rect x="1512" y="2016" width="756" height="1008" fill="#ffffff" stroke="#000000" stroke-width="1" /><rect x="2268" y="2016" width="756" height="1008" fill="#ffffff" stroke="#000000" stroke-width="1" /><rect x="0" y="3024" width="756" height="1008" fill="#ffffff" stroke="#000000" stroke-width="1" /><rect x="756" y="3024" width="756" height="1008" fill="#ffffff" stroke="#000000" stroke-width="1" /><rect x="1512" y="3024" width="756" height="1008" fill="#ffffff" stroke="#000000" stroke-width="1" /><rect x="2268" y="3024" width="756" height="1008" fill="#ffffff" stroke="#000000" stroke-width="1" /></g></svg>