<?xml version='1.0' encoding='utf-8'?>
<svg xmlns="http://www.w3.org/2000/svg" version="1.1" width="1024" height="1024" viewBox="0 0 1024 1024"><rect x="0" y="0" width="100%" height="100%" fill="#ffffff" /><metadata>geometry=voronoi; cascade=False; points=20</metadata><g id="voronoi_regular"><polygon points="910,3747 1304,3668 1734,8109 1511,11288 670,5110" fill="none" stroke="#000000" stroke-width="1" /><polygon points="3446,2208 3334,2273 2570,2513 1797,2312 1750,1787 1780,1777" fill="none" stroke="#000000" stroke-width="1" /><polygon points="910,3747 1304,3668 1459,3286 332,2908 72,2944 182,3174" fill="none" stroke="#000000" stroke-width="1" /><polygon points="1077,1993 187,1494 731,1165 1338,1296 1565,1718 1230,1964" fill="none" stroke="#000000" stroke-width="1" /><polygon points="4313,1961 3446,2208 1780,1777 2359,1009" fill="none" stroke="#000000" stroke-width="1" /><polygon points="1077,1993 187,1494 -2142,2068 72,2944 332,2908 678,2661" fill="none" stroke="#000000" stroke-width="1" /><polygon points="4313,1961 2359,1009 2122,646 2656,206 6790,1926" fill="none" stroke="#000000" stroke-width="1" /><polygon points="1377,-64 832,576 142,383 1154,-1669" fill="none" stroke="#000000" stroke-width="1" /><polygon points="1077,1993 678,2661 1325,2508 1230,1964" fill="none" stroke="#000000" stroke-width="1" /><polygon points="910,3747 182,3174 670,5110" fill="none" stroke="#000000" stroke-width="1" /><polygon points="1754,3155 2570,2513 3334,2273 2229,3638 1748,3183" fill="none" stroke="#000000" stroke-width="1" /><polygon points="2359,1009 1780,1777 1750,1787 1565,1718 1338,1296 1817,533 2122,646" fill="none" stroke="#000000" stroke-width="1" /><polygon points="2656,206 1511,-42379 1154,-1669 1377,-64 1817,533 2122,646" fill="none" stroke="#000000" stroke-width="1" /><polygon points="1734,8109 2327,3879 2229,3638 1748,3183 1459,3286 1304,3668" fill="none" stroke="#000000" stroke-width="1" /><polygon points="4313,1961 3446,2208 3334,2273 2229,3638 2327,3879 8158,2015 6790,1926" fill="none" stroke="#000000" stroke-width="1" /><polygon points="678,2661 332,2908 1459,3286 1748,3183 1754,3155 1631,2638 1325,2508" fill="none" stroke="#000000" stroke-width="1" /><polygon points="1338,1296 1817,533 1377,-64 832,576 731,1165" fill="none" stroke="#000000" stroke-width="1" /><polygon points="1754,3155 2570,2513 1797,2312 1631,2638" fill="none" stroke="#000000" stroke-width="1" /><polygon points="187,1494 -2142,2068 -2566,2015 142,383 832,576 731,1165" fill="none" stroke="#000000" stroke-width="1" /><polygon points="1230,1964 1565,1718 1750,1787 1797,2312 1631,2638 1325,2508" fill="none" stroke="#000000" stroke-width="1" /></g></svg>