<?xml version='1.0' encoding='utf-8'?>
<svg xmlns="http://www.w3.org/2000/svg" version="1.1" width="3024" height="4032" viewBox="0 0 3024 4032"><rect x="0" y="0" width="100%" height="100%" fill="#ffffff" /><g id="voronoi"><polygon points="1846,1526 2095,1794 2096,1853 2007,1969 1721,1787 1717,1712" fill="none" stroke="#000000" stroke-width="1" /><polygon points="752,3495 1399,3700 1443,4276 1153,6579 530,4159 675,3536 726,3500" fill="none" stroke="#000000" stroke-width="1" /><polygon points="1776,2720 1812,2782 2087,2994 2303,2518 2298,2502 1920,2330 1844,2306 1722,2356 1712,2421" fill="none" stroke="#000000" stroke-width="1" /><polygon points="2455,2080 2668,2183 2708,2174 2677,1983 2672,1972 2452,1804 2238,1905" fill="none" stroke="#000000" stroke-width="1" /><polygon points="961,1839 482,1870 413,1701 475,1589 785,1645 990,1814" fill="none" stroke="#000000" stroke-width="1" /><polygon points="1289,3357 1291,3358 1446,3520 1515,3400 1504,3144 1428,3006 1203,2928 1182,2939" fill="none" stroke="#000000" stroke-width="1" /><polygon points="498,241 416,846 355,926 114,558 474,199" fill="none" stroke="#000000" stroke-width="1" /><polygon points="2522,1425 2331,1515 1900,1266 1984,955 2387,1085" fill="none" stroke="#000000" stroke-width="1" /><polygon points="498,241 866,538 778,755 416,846" fill="none" stroke="#000000" stroke-width="1" /><polygon points="2693,2886 2559,2800 2433,2872 2383,3026 2443,3047" fill="none" stroke="#000000" stroke-width="1" /><polygon points="355,926 298,1106 -998,1171 -2744,1015 114,558" fill="none" stroke="#000000" stroke-width="1" /><polygon points="111,2096 337,2138 503,1957 482,1870 413,1701 334,1720" fill="none" stroke="#000000" stroke-width="1" /><polygon points="2563,1440 2672,1972 2677,1983 3006,1409" fill="none" stroke="#000000" stroke-width="1" /><polygon points="983,3143 882,3318 1291,3358 1289,3357" fill="none" stroke="#000000" stroke-width="1" /><polygon points="1846,1526 2095,1794 2331,1515 1900,1266 1801,1403" fill="none" stroke="#000000" stroke-width="1" /><polygon points="2175,3086 2383,3026 2433,2872 2306,2521 2303,2518 2087,2994 2114,3053" fill="none" stroke="#000000" stroke-width="1" /><polygon points="1863,3240 2114,3053 2175,3086 2179,3101 2007,3522 1847,3262" fill="none" stroke="#000000" stroke-width="1" /><polygon points="1171,1043 1318,901 1128,525 866,538 778,755 896,1091" fill="none" stroke="#000000" stroke-width="1" /><polygon points="3284,3624 2774,3377 2737,3440 2651,3689 2755,3797" fill="none" stroke="#000000" stroke-width="1" /><polygon points="3284,3624 2755,3797 2762,4033 4141,3644" fill="none" stroke="#000000" stroke-width="1" /><polygon points="807,1174 460,1254 298,1106 355,926 416,846 778,755 896,1091" fill="none" stroke="#000000" stroke-width="1" /><polygon points="1399,3700 1443,4276 1978,3815 1997,3577 1432,3627" fill="none" stroke="#000000" stroke-width="1" /><polygon points="166,3847 -1693,3207 101,3178 255,3325" fill="none" stroke="#000000" stroke-width="1" /><polygon points="1803,369 1918,435 1990,705 1932,855 1628,837 1546,476 1562,457" fill="none" stroke="#000000" stroke-width="1" /><polygon points="2728,779 3006,394 2971,377 2709,478 2527,706 2558,786" fill="none" stroke="#000000" stroke-width="1" /><polygon points="2370,3407 2737,3440 2774,3377 2767,3311 2742,3283 2617,3223" fill="none" stroke="#000000" stroke-width="1" /><polygon points="570,2921 615,2990 726,3500 675,3536 396,3415 255,3325 101,3178 431,2893" fill="none" stroke="#000000" stroke-width="1" /><polygon points="2892,943 2728,779 3006,394 7436,1323 3493,1293 3098,1098" fill="none" stroke="#000000" stroke-width="1" /><polygon points="2775,2889 2844,2870 2749,3243 2702,3000" fill="none" stroke="#000000" stroke-width="1" /><polygon points="1546,476 1183,431 1128,525 1318,901 1385,907 1628,837" fill="none" stroke="#000000" stroke-width="1" /><polygon points="2892,943 2503,935 2467,1005 3098,1098" fill="none" stroke="#000000" stroke-width="1" /><polygon points="111,2096 337,2138 382,2442 378,2446 67,2111" fill="none" stroke="#000000" stroke-width="1" /><polygon points="1451,2974 1428,3006 1203,2928 1255,2739 1455,2639" fill="none" stroke="#000000" stroke-width="1" /><polygon points="2096,1853 2238,1905 2455,2080 1920,2330 1844,2306 2007,1969" fill="none" stroke="#000000" stroke-width="1" /><polygon points="382,2442 337,2138 503,1957 715,2139 753,2279" fill="none" stroke="#000000" stroke-width="1" /><polygon points="1754,1405 1801,1403 1900,1266 1984,955 1932,855 1628,837 1385,907 1585,1390" fill="none" stroke="#000000" stroke-width="1" /><polygon points="196,3867 530,4159 675,3536 396,3415" fill="none" stroke="#000000" stroke-width="1" /><polygon points="983,3143 1289,3357 1182,2939 1077,2962 983,3141" fill="none" stroke="#000000" stroke-width="1" /><polygon points="371,2458 -762,2337 -1865,2522 385,2693 391,2624" fill="none" stroke="#000000" stroke-width="1" /><polygon points="2749,3243 2742,3283 2767,3311 4188,2456 3498,2455 3473,2467 2844,2870" fill="none" stroke="#000000" stroke-width="1" /><polygon points="1562,457 1546,476 1183,431 1349,-358 1425,-208" fill="none" stroke="#000000" stroke-width="1" /><polygon points="2179,3101 2327,3426 2303,3575 2017,3559 2007,3522" fill="none" stroke="#000000" stroke-width="1" /><polygon points="1920,2330 2298,2502 2668,2183 2455,2080" fill="none" stroke="#000000" stroke-width="1" /><polygon points="1046,1813 990,1814 785,1645 840,1559 1037,1465 1147,1518 1212,1709" fill="none" stroke="#000000" stroke-width="1" /><polygon points="2544,1435 2452,1804 2672,1972 2563,1440" fill="none" stroke="#000000" stroke-width="1" /><polygon points="111,2096 334,1720 231,1713 -309,2178 67,2111" fill="none" stroke="#000000" stroke-width="1" /><polygon points="946,2414 753,2279 382,2442 378,2446 371,2458 391,2624 889,2550" fill="none" stroke="#000000" stroke-width="1" /><polygon points="2880,267 2335,-622 2307,-418 2530,324" fill="none" stroke="#000000" stroke-width="1" /><polygon points="2702,3000 2749,3243 2742,3283 2617,3223 2562,3142" fill="none" stroke="#000000" stroke-width="1" /><polygon points="2892,943 2728,779 2558,786 2503,935" fill="none" stroke="#000000" stroke-width="1" /><polygon points="889,2550 845,2758 570,2921 431,2893 385,2693 391,2624" fill="none" stroke="#000000" stroke-width="1" /><polygon points="196,3867 396,3415 255,3325 166,3847" fill="none" stroke="#000000" stroke-width="1" /><polygon points="385,2693 -1865,2522 -4735,2888 -1693,3207 101,3178 431,2893" fill="none" stroke="#000000" stroke-width="1" /><polygon points="1037,1465 868,1289 840,1559" fill="none" stroke="#000000" stroke-width="1" /><polygon points="-309,2178 -762,2337 -1865,2522 -4735,2888 -167264,2015 -5549,935 -2744,1015 -998,1171 231,1713" fill="none" stroke="#000000" stroke-width="1" /><polygon points="1574,2261 1722,2356 1844,2306 2007,1969 1721,1787 1492,1989" fill="none" stroke="#000000" stroke-width="1" /><polygon points="2303,3575 2370,3683 2292,3874 1978,3815 1997,3577 2017,3559" fill="none" stroke="#000000" stroke-width="1" /><polygon points="1139,2303 978,2408 946,2414 753,2279 715,2139 961,1839 990,1814 1046,1813" fill="none" stroke="#000000" stroke-width="1" /><polygon points="1451,2974 1428,3006 1504,3144 1702,3015 1812,2782 1776,2720" fill="none" stroke="#000000" stroke-width="1" /><polygon points="983,3141 615,2990 570,2921 845,2758 1077,2962" fill="none" stroke="#000000" stroke-width="1" /><polygon points="1754,1405 1571,1712 1373,1789 1306,1727 1553,1407 1585,1390" fill="none" stroke="#000000" stroke-width="1" /><polygon points="334,1720 413,1701 475,1589 460,1254 298,1106 -998,1171 231,1713" fill="none" stroke="#000000" stroke-width="1" /><polygon points="1863,3240 1702,3015 1504,3144 1515,3400 1847,3262" fill="none" stroke="#000000" stroke-width="1" /><polygon points="2353,473 2224,-39 2307,-418 2530,324 2491,420" fill="none" stroke="#000000" stroke-width="1" /><polygon points="1139,2303 978,2408 1255,2739 1455,2639 1712,2421 1722,2356 1574,2261" fill="none" stroke="#000000" stroke-width="1" /><polygon points="2306,2521 2572,2666 2559,2800 2433,2872" fill="none" stroke="#000000" stroke-width="1" /><polygon points="3284,3624 2774,3377 2767,3311 4188,2456 11841,1731 51313,2015 4141,3644" fill="none" stroke="#000000" stroke-width="1" /><polygon points="1803,369 1425,-208 1562,457" fill="none" stroke="#000000" stroke-width="1" /><polygon points="3098,1098 3493,1293 3006,1409 2563,1440 2544,1435 2522,1425 2387,1085 2467,1005" fill="none" stroke="#000000" stroke-width="1" /><polygon points="474,199 465,137 -5549,935 -2744,1015 114,558" fill="none" stroke="#000000" stroke-width="1" /><polygon points="2755,3797 2651,3689 2370,3683 2292,3874 2369,5672 2762,4033" fill="none" stroke="#000000" stroke-width="1" /><polygon points="1863,3240 1702,3015 1812,2782 2087,2994 2114,3053" fill="none" stroke="#000000" stroke-width="1" /><polygon points="1803,369 1918,435 2224,-39 2307,-418 2335,-622 1511,-6051 1168,-2423 1349,-358 1425,-208" fill="none" stroke="#000000" stroke-width="1" /><polygon points="2327,3426 2303,3575 2370,3683 2651,3689 2737,3440 2370,3407" fill="none" stroke="#000000" stroke-width="1" /><polygon points="1451,2974 1455,2639 1712,2421 1776,2720" fill="none" stroke="#000000" stroke-width="1" /><polygon points="2096,1853 2238,1905 2452,1804 2544,1435 2522,1425 2331,1515 2095,1794" fill="none" stroke="#000000" stroke-width="1" /><polygon points="1847,3262 1515,3400 1446,3520 1432,3627 1997,3577 2017,3559 2007,3522" fill="none" stroke="#000000" stroke-width="1" /><polygon points="2503,935 2558,786 2527,706 2320,558 1990,705 1932,855 1984,955 2387,1085 2467,1005" fill="none" stroke="#000000" stroke-width="1" /><polygon points="840,1559 785,1645 475,1589 460,1254 807,1174 868,1289" fill="none" stroke="#000000" stroke-width="1" /><polygon points="498,241 866,538 1128,525 1183,431 1349,-358 1168,-2423 465,137 474,199" fill="none" stroke="#000000" stroke-width="1" /><polygon points="2320,558 1990,705 1918,435 2224,-39 2353,473" fill="none" stroke="#000000" stroke-width="1" /><polygon points="1373,1789 1492,1989 1574,2261 1139,2303 1046,1813 1212,1709 1306,1727" fill="none" stroke="#000000" stroke-width="1" /><polygon points="2292,3874 1978,3815 1443,4276 1153,6579 1511,14108 2369,5672" fill="none" stroke="#000000" stroke-width="1" /><polygon points="1571,1712 1717,1712 1721,1787 1492,1989 1373,1789" fill="none" stroke="#000000" stroke-width="1" /><polygon points="1585,1390 1385,907 1318,901 1171,1043 1224,1296 1553,1407" fill="none" stroke="#000000" stroke-width="1" /><polygon points="2562,3142 2617,3223 2370,3407 2327,3426 2179,3101 2175,3086 2383,3026 2443,3047" fill="none" stroke="#000000" stroke-width="1" /><polygon points="2306,2521 2572,2666 3473,2467 3498,2455 2708,2174 2668,2183 2298,2502 2303,2518" fill="none" stroke="#000000" stroke-width="1" /><polygon points="946,2414 978,2408 1255,2739 1203,2928 1182,2939 1077,2962 845,2758 889,2550" fill="none" stroke="#000000" stroke-width="1" /><polygon points="715,2139 503,1957 482,1870 961,1839" fill="none" stroke="#000000" stroke-width="1" /><polygon points="983,3143 882,3318 752,3495 726,3500 615,2990 983,3141" fill="none" stroke="#000000" stroke-width="1" /><polygon points="1754,1405 1801,1403 1846,1526 1717,1712 1571,1712" fill="none" stroke="#000000" stroke-width="1" /><polygon points="1553,1407 1224,1296 1147,1518 1212,1709 1306,1727" fill="none" stroke="#000000" stroke-width="1" /><polygon points="2775,2889 2702,3000 2562,3142 2443,3047 2693,2886" fill="none" stroke="#000000" stroke-width="1" /><polygon points="2527,706 2320,558 2353,473 2491,420 2709,478" fill="none" stroke="#000000" stroke-width="1" /><polygon points="2775,2889 2844,2870 3473,2467 2572,2666 2559,2800 2693,2886" fill="none" stroke="#000000" stroke-width="1" /><polygon points="1037,1465 1147,1518 1224,1296 1171,1043 896,1091 807,1174 868,1289" fill="none" stroke="#000000" stroke-width="1" /><polygon points="2709,478 2971,377 2880,267 2530,324 2491,420" fill="none" stroke="#000000" stroke-width="1" /><polygon points="67,2111 378,2446 371,2458 -762,2337 -309,2178" fill="none" stroke="#000000" stroke-width="1" /><polygon points="3006,1409 2677,1983 2708,2174 3498,2455 4188,2456 11841,1731 7436,1323 3493,1293" fill="none" stroke="#000000" stroke-width="1" /><polygon points="882,3318 752,3495 1399,3700 1432,3627 1446,3520 1291,3358" fill="none" stroke="#000000" stroke-width="1" /></g></svg>